<?xml version="1.0" encoding="UTF-8"?>
<svg id="Layer_2" data-name="Layer 2" xmlns="http://www.w3.org/2000/svg" viewBox="0 0 1600.84 1403.67">
  <defs>
    <style>
      .cls-1 {
        fill: #c2d0ef;
      }

      .cls-2 {
        fill: #7a93de;
      }

      .cls-3 {
        fill: #bfc9eb;
      }

      .cls-4 {
        fill: #c7d1f4;
      }

      .cls-5 {
        fill: #486cd2;
      }

      .cls-6 {
        fill: #657ab8;
      }

      .cls-7 {
        fill: #d34e63;
      }

      .cls-8, .cls-9, .cls-10 {
        fill: #fff;
      }

      .cls-8, .cls-11 {
        opacity: .19;
      }

      .cls-9 {
        opacity: .33;
      }

      .cls-12 {
        fill: #d8d5d4;
      }

      .cls-13 {
        isolation: isolate;
      }

      .cls-14 {
        fill: #f8f6f8;
      }

      .cls-15 {
        fill: #f9f7f7;
        opacity: .35;
      }

      .cls-16 {
        fill: #bbc5e6;
      }

      .cls-17 {
        fill: #878686;
      }

      .cls-18 {
        fill: #b2bcdb;
      }

      .cls-19 {
        fill: #f5f3f3;
      }

      .cls-20 {
        fill: #4264c2;
      }

      .cls-21 {
        fill: #e0e5f4;
      }

      .cls-22 {
        fill: #f9f4f4;
      }

      .cls-23 {
        fill: #012da8;
      }

      .cls-24 {
        opacity: .39;
      }

      .cls-25 {
        fill: #cad812;
      }

      .cls-26 {
        fill: #f4e9e9;
      }

      .cls-27 {
        fill: #f4eaea;
      }

      .cls-28 {
        fill: #f2f2f2;
      }

      .cls-29 {
        fill: #88a4f7;
      }

      .cls-30 {
        fill: #ff5b6c;
      }

      .cls-31 {
        fill: #f4f3f3;
      }

      .cls-32 {
        fill: #aabef7;
      }

      .cls-33 {
        fill: #f7f3f3;
      }
    </style>
  </defs>
  <g id="PHARMACY">
    <g>
      <g>
        <path class="cls-29" d="M.1,856.57L0,833.37l9.93-1.04c5.3-6.71,12.7-13,22.26-18.52l553.28-319.43c22.86-13.2,53.23-19.33,83.05-18.4,25.92.8,51.4,6.93,71.13,18.4l829.52,482.06c8.88,5.16,15.86,10.99,21,17.21l10.68,2.08v26.69s-.06,0-.06,0c-.67,15.71-11.35,31.33-32.12,43.32l-553.28,319.43c-21.36,12.33-49.3,18.49-77.2,18.5-27.9,0-55.77-6.17-76.99-18.5L31.67,903.11c-18.33-10.65-28.71-24.18-31.12-38.09-.19-1.12-.33-2.24-.42-3.36h0v-.02c-.14-1.69-.12-3.38-.02-5.07Z"/>
        <g class="cls-13">
          <g>
            <path class="cls-21" d="M.55,839.65c2.41,13.92,12.79,27.44,31.12,38.09l829.52,482.06c21.22,12.33,49.09,18.49,76.99,18.5,27.9,0,55.84-6.17,77.2-18.5l553.28-319.43c21.36-12.33,32.08-28.5,32.18-44.66.08-16.16-10.46-32.32-31.68-44.66l-829.52-482.06c-19.73-11.47-45.21-17.6-71.13-18.4-29.82-.92-60.19,5.21-83.05,18.4L32.18,788.44c-24.25,14-34.8,32.94-31.64,51.21ZM1194.55,1198.42c0-3.47,2.31-6.93,6.88-9.57l71.47-41.27c4.92-2.84,11.46-4.15,17.87-3.94,5.53.19,10.95,1.5,15.16,3.94l6.92,4.02c5.32,3.09,7.51,7.31,6.59,11.32-.67,2.86-2.89,5.62-6.69,7.81l-71.47,41.27c-5.09,2.94-11.93,4.24-18.55,3.92-5.28-.27-10.45-1.57-14.49-3.92l-6.92-4.02c-4.55-2.64-6.81-6.1-6.78-9.57ZM60.94,854.73l638.87-368.85,840.07,488.2-638.87,368.85L60.94,854.73Z"/>
            <polygon class="cls-5" points="699.81 485.88 1539.89 974.07 901.01 1342.93 60.94 854.73 699.81 485.88"/>
            <path class="cls-5" d="M1194.55,1198.42c-.03,3.47,2.23,6.93,6.78,9.57l6.92,4.02c4.03,2.34,9.2,3.65,14.49,3.92,6.62.33,13.46-.98,18.55-3.92l71.47-41.27c3.81-2.2,6.02-4.96,6.69-7.81.92-4.01-1.27-8.23-6.59-11.32l-6.92-4.02c-4.21-2.45-9.63-3.76-15.16-3.94-6.41-.2-12.95,1.1-17.87,3.94l-71.47,41.27c-4.58,2.64-6.88,6.1-6.88,9.57ZM1198.81,1197.78c.03-3.1,4.33-7.5,8.43-9.86l64.02-36.96c4.4-2.54,12.51-5.02,18.25-4.83,4.95.16,9.81,1.34,13.58,3.53l6.19,3.6c4.77,2.77,6.73,6.54,5.91,10.14-.6,2.56-4.85,6.33-8.25,8.29l-64.02,36.96c-4.56,2.63-12.92,5.1-18.85,4.8-4.74-.23-9.36-1.4-12.98-3.51l-6.19-3.6c-4.07-2.37-6.1-5.47-6.09-8.57Z"/>
            <path class="cls-21" d="M1207.24,1187.91l64.02-36.96c4.4-2.54,12.51-5.02,18.25-4.83,4.95.16,9.81,1.34,13.58,3.53l6.19,3.6c4.77,2.77,6.73,6.54,5.91,10.14-.6,2.56-4.85,6.33-8.25,8.29l-64.02,36.96c-4.56,2.63-12.92,5.1-18.85,4.8-4.74-.23-9.36-1.4-12.98-3.51l-6.19-3.6c-4.07-2.37-6.1-5.47-6.09-8.57.03-3.1,4.33-7.5,8.43-9.86Z"/>
          </g>
        </g>
      </g>
      <g>
        <polygon class="cls-20" points="1213.7 1040.22 1393.25 995.7 1197.43 713.22 762.75 705.37 1213.7 1040.22"/>
        <g>
          <polygon class="cls-21" points="1288.83 278.08 807.17 0 762.48 640.48 1330.33 968.33 1288.83 278.08"/>
          <polygon class="cls-10" points="807.17 2.62 1288.83 280.7 1330.17 968.23 1330.33 968.33 1288.83 278.08 807.17 0 762.48 640.48 762.66 640.58 807.17 2.62"/>
          <polygon class="cls-4" points="690.65 71.8 778.4 63.08 807.17 0 762.48 640.48 638.07 712.28 690.65 71.8"/>
          <polygon class="cls-16" points="778.4 63.08 778.44 64.55 777.8 190.52 793.88 190.52 807.17 0 778.4 63.08"/>
          <polygon class="cls-21" points="1172.3 349.88 690.65 71.8 637.74 712.46 1213.81 1040.13 1172.3 349.88 1202.35 302.46 1288.83 278.08 1330.33 968.33 1213.81 1040.13 1172.3 349.88"/>
          <polygon class="cls-10" points="1168.53 356.29 1170.68 353.06 690.65 71.8 690.22 76.92 1168.53 356.29"/>
          <polygon class="cls-16" points="1164.42 349.88 1194.46 302.46 1252.63 951.8 1213.81 1040.13 1164.42 349.88"/>
          <polygon class="cls-4" points="1194.46 302.46 1288.83 278.08 1330.33 968.33 1252.63 951.8 1194.46 302.46"/>
          <polygon class="cls-4" points="1213.81 1040.13 1252.63 951.8 1330.33 968.33 1213.81 1040.13"/>
          <g>
            <path class="cls-23" d="M816.43,246.13c-7.18-4.15-13.03-.82-13.05,7.44-.02,8.25,5.78,18.31,12.97,22.46,7.19,4.15,13.03.82,13.05-7.44.02-8.25-5.78-18.31-12.97-22.46ZM816.36,269.13c-3.87-2.24-7-7.66-6.99-12.11.01-4.45,3.16-6.25,7.04-4.01,3.87,2.24,7.01,7.66,6.99,12.11-.01,4.45-3.17,6.24-7.04,4.01Z"/>
            <path class="cls-26" d="M816.41,253.01c-3.87-2.24-7.02-.44-7.04,4.01-.01,4.45,3.12,9.87,6.99,12.11,3.87,2.24,7.03.44,7.04-4.01.01-4.45-3.12-9.87-6.99-12.11Z"/>
          </g>
          <g>
            <path class="cls-4" d="M938.83,534.97c-4.18,0-8.5-.36-12.94-1.1-18.55-3.05-35.57-10.04-50.58-20.78-13.85-9.9-26.08-23.04-36.35-39.04-18.03-28.11-29.81-64.64-34.09-105.66-3.9-37.44-1.16-75.93,7.71-108.36.58-2.1,2.75-3.34,4.85-2.77,2.1.58,3.34,2.75,2.77,4.85-16.01,58.55-12.43,148.69,25.41,207.68,20.4,31.8,47.84,50.74,81.57,56.29,20.57,3.39,37.28-1.72,49.65-15.17,24.31-26.42,29.43-82.49,13.37-146.31-.53-2.11.75-4.26,2.87-4.79,2.11-.54,4.26.75,4.79,2.87,16.7,66.37,10.87,125.22-15.22,153.58-11.37,12.36-26.35,18.72-43.81,18.72Z"/>
            <g>
              <path class="cls-23" d="M995.1,349.28c-7.18-4.15-13.03-.82-13.05,7.44-.02,8.25,5.78,18.31,12.97,22.46,7.19,4.15,13.03.82,13.05-7.44.02-8.25-5.78-18.31-12.97-22.46ZM995.03,372.29c-3.87-2.24-7-7.66-6.99-12.11.01-4.45,3.16-6.25,7.04-4.01,3.87,2.24,7.01,7.66,6.99,12.11-.01,4.45-3.17,6.24-7.04,4.01Z"/>
              <path class="cls-26" d="M995.08,356.17c-3.87-2.24-7.02-.44-7.04,4.01-.01,4.45,3.12,9.87,6.99,12.11,3.87,2.24,7.03.44,7.04-4.01.01-4.45-3.12-9.87-6.99-12.11Z"/>
            </g>
            <path class="cls-5" d="M994.18,359.69c-2.16-.09-4.01,1.62-4.09,3.8-2.11,56.76-19.03,98.48-47.67,117.5-17.43,11.57-38.39,14.06-57.54,6.83-33.89-12.81-56.06-42.36-65.91-87.84-10.19-47.05-4.91-101.15,1.31-138.25.36-2.15-1.09-4.19-3.24-4.55-2.14-.36-4.19,1.09-4.55,3.24-6.33,37.78-11.68,92.96-1.23,141.23,10.45,48.26,34.28,79.74,70.83,93.55,8.13,3.07,16.55,4.59,24.93,4.59,13.84,0,27.58-4.13,39.76-12.22,14.51-9.64,26.24-24.31,34.87-43.61,9.66-21.6,15.14-48.57,16.32-80.17.08-2.18-1.62-4.01-3.8-4.09Z"/>
          </g>
          <polygon class="cls-5" points="932.25 635.35 932.44 567.06 860.08 525.28 859.89 593.58 800.46 559.26 800.22 642.4 859.66 676.72 859.46 745.01 931.82 786.79 932.01 718.49 991.44 752.81 991.68 669.67 932.25 635.35"/>
          <polygon class="cls-10" points="1289.05 281.8 1288.83 278.08 1194.46 302.46 1194.84 306.61 1289.05 281.8"/>
          <polygon class="cls-10" points="1194.46 302.46 1164.42 349.88 1164.72 354.06 1194.84 306.61 1194.84 306.61 1194.46 302.46"/>
          <polygon class="cls-10" points="778.44 64.55 807.02 2.21 807.17 0 792.79 31.54 778.4 63.08 690.65 71.8 690.48 73.81 778.44 64.55"/>
        </g>
      </g>
      <g>
        <polygon class="cls-20" points="531.13 851.12 747.51 827.89 588.85 716.24 364.2 747.53 531.13 851.12"/>
        <g>
          <polygon class="cls-21" points="448.63 378.02 345.85 437.74 531.71 545.05 634.49 485.32 448.63 378.02"/>
          <polygon class="cls-3" points="634.74 485.3 530.99 544.73 531.05 851.28 635.61 791.55 634.74 485.3"/>
          <path class="cls-4" d="M346.17,438.23l-.87,306.25,185.83,106.82-.14-306.57-184.82-106.5ZM497.87,548.89c5.76,3.32,10.41,11.38,10.39,18-.02,6.61-4.7,9.28-10.46,5.96-5.76-3.32-10.41-11.38-10.39-18,.02-6.62,4.7-9.28,10.46-5.96ZM454.9,646.95l-92.93-53.65.03-12.09,92.93,53.65-.03,12.09ZM504.03,819.98l-34.19-19.74.03-9.08,34.19,19.74-.03,9.08ZM515.49,649.18l-153.42-88.58.12-43.32,153.42,88.58-.12,43.32Z"/>
          <polygon class="cls-7" points="362.19 517.28 362.07 560.6 515.49 649.18 515.61 605.86 362.19 517.28"/>
          <polygon class="cls-7" points="362.01 581.2 361.97 593.29 454.9 646.95 454.94 634.86 362.01 581.2"/>
          <path class="cls-7" d="M497.87,548.89c-5.76-3.32-10.44-.66-10.46,5.96-.02,6.61,4.63,14.67,10.39,18,5.76,3.32,10.44.65,10.46-5.96.02-6.62-4.63-14.67-10.39-18Z"/>
          <polygon class="cls-7" points="469.86 791.16 469.84 800.24 504.03 819.98 504.06 810.9 469.86 791.16"/>
          <polygon class="cls-18" points="543.87 550.8 634.78 498.64 634.74 485.3 530.99 544.73 531.05 851.28 546.13 842.66 543.87 550.8"/>
        </g>
      </g>
      <g>
        <path class="cls-20" d="M1319.39,1050.69c-16.52-10.02-43.22-10.02-59.63,0-16.41,10.02-16.33,26.27.19,36.29,16.52,10.02,43.21,10.02,59.63,0,16.41-10.02,16.33-26.27-.19-36.29Z"/>
        <g>
          <g>
            <g>
              <path class="cls-29" d="M1314.79,897.52c0-.19,0-.38-.01-.57,0-.47-.02-.98-.06-1.39-.08-.86-.22-2.01-.38-2.86-.11-.57-.27-1.33-.44-1.89-.25-.85-.6-1.97-.94-2.79-.23-.54-.52-1.26-.79-1.77-.44-.84-1.04-1.95-1.56-2.73-.44-.67-1.61-2.44-3.51-4.34-.86-.86-2.06-1.96-3.04-2.67-2.24-1.63-2.39-1.72-4.89-3.1-.26-.14-1.69-.9-4.14-1.82-1.29-.48-2.65-.87-3.43-1.08-.67-2.7-1.31-5.63-1.91-8.16.17-.09.35-.18.53-.28.58-.35,1.34-.84,1.9-1.22.28-.2.63-.49.9-.71.04-.03.97-.79,1.96-1.92,1.02-1.16,1.64-2.16,1.94-2.64,0-.01.79-1.28,1.36-2.68.19-.45.42-1.07.57-1.53.15-.44.33-1.04.44-1.49.17-.73.36-1.72.48-2.46.07-.45.13-1.06.17-1.51.05-.59.07-1.39.08-1.98,0-.06,0-.64-.04-1.39-.07-1.07-.23-2.14-.46-3.18-.1-.46-.2-.91-.3-1.37-.05-.22-.09-.42-.13-.61-.06-.29-.12-.57-.18-.86-.07-.32-.14-.68-.24-1.16,0-.04-.02-.09-.03-.13-.01-.07-.03-.13-.04-.2-.09-.45-.25-1.3-.4-2.13-.01-.08-.03-.16-.04-.24-.04-.2-.07-.41-.11-.61,0-.01,0-.02,0-.03-.02-.09-.03-.17-.04-.26,0-.02,0-.03,0-.05,0-.05-.02-.1-.02-.15,0-.05-.02-.11-.03-.16,0,0,0,0,0,0-.02-.1-.03-.2-.05-.29,0,0,0-.02,0-.02-.39-2.36-.62-4.15-.72-4.95-.01-.1-.02-.18-.03-.25-.1-.88-.27-2.27-.43-4.02,0-.04,0-.08-.01-.13,0-.04,0-.09-.01-.13-.05-.62-.11-1.29-.15-1.99,0-.01,0-.03,0-.04-.01-.17-.02-.34-.03-.52-.07-1.12-.16-3.5-.16-3.59-.03-1.11-.05-2.2-.05-3.26.01-4.53.03-10.57.04-15.09,0-.24,0-.57-.02-.81-.01-.27-.03-.63-.06-.9-.07-.84-.19-1.47-.23-1.68-.2-1.12-.51-2.2-.91-3.23-.16-.4-.63-1.62-1.49-2.99-.13-.2-.47-.75-.96-1.38-.55-.71-1.02-1.21-1.12-1.3-.32-.33-.75-.74-1.09-1.05-.23-.2-.55-.45-.79-.64-.25-.2-.82-.61-1.82-1.22-1.66-1-3.04-1.46-3.9-1.67-.85-.21-1.45-.28-1.73-.3-.31-.03-.73-.05-1.05-.06-.59,0-1.05.04-1.05.04-.62.06-1.16.11-2.18.38-.59.16-1.46.47-1.98.71-.34.16-.79.38-1.12.56-.49.27-.92.53-1.17.69-1.01.63-1.72,1.23-1.79,1.3-.34.29-.78.7-1.11,1.02-.22.21-.49.51-.69.74-.24.27-.86.99-1.58,2.12-.61.95-1.45,2.52-2.04,4.56-.47,1.64-.7,3.28-.71,5.04,0-.43.24-1.58.17-1.29-.11.43-.17.86-.17,1.29l-.04,15.09c0,.57-.02,1.64-.02,1.6,0,.45-.01.76-.03,1.13,0-.08-.04,1.17-.06,1.56,0,0,0,.01,0,.02,0,.04-.01.26-.01.27-.03.67-.07,1.32-.13,2.28,0,.07,0,.14-.01.21,0,.12-.02.24-.03.36,0,.12-.02.24-.03.37,0,.06,0,.12-.01.19,0,.11-.02.22-.03.32,0,.07-.01.14-.02.21,0,.06-.01.12-.02.18-.19,2.2-.41,3.95-.54,4.99,0,.04-.01.1-.02.15-.08.62-.27,2.02-.57,3.89,0,.01,0,.02,0,.03,0,.05-.02.11-.03.16,0,.04-.01.07-.02.11,0,.03-.01.06-.02.09-.12.72-.25,1.5-.41,2.33-.01.08-.03.16-.04.24-.16.84-.32,1.69-.41,2.14-.01.06-.02.12-.04.18,0,.05-.02.09-.03.14-.1.48-.18.84-.24,1.15-.06.3-.13.6-.19.9-.04.17-.08.34-.12.54-.11.47-.21.94-.32,1.41h0c-.17.76-.35,1.65-.46,2.94-.1,1.21-.06,2.27-.04,2.91.02.51.08,1.19.14,1.7.04.38.12.88.18,1.25.25,1.49.61,2.66.62,2.67.14.44.33,1.02.49,1.45.13.35.32.8.47,1.14.2.44.48,1.01.71,1.44.17.32.41.74.61,1.05.29.44.68,1.01.99,1.43.21.29.52.65.75.92.78.89,1.38,1.46,2.27,2.19.62.5,1.33,1,2.11,1.48.3.18.6.34.87.49-.61,2.53-1.27,5.45-1.95,8.16-.4.1-.67.17-.68.18-1.16.35-2.69.86-3.83,1.28-.63.23-1.44.62-2.06.89-.68.3-1.56.78-2.21,1.14-.54.3-1.23.74-1.76,1.06-1.04.63-2.34,1.63-3.27,2.42-.46.39-1.06.93-1.49,1.36-.49.49-1.13,1.15-1.58,1.67-.7.83-1.62,1.96-2.2,2.89-.31.49-.73,1.14-1,1.65-.44.84-1.03,1.96-1.37,2.84-.21.54-.49,1.26-.66,1.81-.26.85-.57,1.99-.74,2.86-.11.57-.25,1.34-.3,1.92-.07.68-.12,1.54-.16,2.3.02-.44.07-.88.15-1.31-.07.44-.12.87-.15,1.31h0c-.01.2-.02.4-.02.61h0s0,0,0,0l-.48,169.48c0,2.06.32,4.08,1.06,6.15.7,1.97,1.74,3.86,3.11,5.62.58.75,1.46,1.68,2.12,2.37.38.39.94.86,1.35,1.23.85.76,2.09,1.64,3.05,2.26.8.51,1.91,1.13,2.74,1.58.56.3,1.32.65,1.9.91.71.32,1.68.71,2.41.98.68.25,1.59.56,2.28.76,1.29.37,3.03.82,4.34,1.08,2.22.44,3.95.61,4.6.68,1.02.1,2.65.23,4.62.25,2.51.03,4.51-.15,4.6-.16,1.23-.11,2.63-.23,4.56-.57,2.32-.4,4.01-.87,4.47-1,.87-.25,2.5-.72,4.35-1.47,1.55-.63,2.73-1.19,4.18-2-.15.09-.31.16-.48.22-.33.12-.69.19-1.07.2.38-.01.74-.08,1.07-.2.17-.06.33-.13.48-.22.7-.4,1.61-.95,2.27-1.4.34-.23.72-.5,1.1-.78.19-.14.39-.29.6-.45.18-.14.35-.28.51-.42.26-.22.5-.43.72-.62.61-.54,1.39-1.31,1.93-1.92.6-.65,1.33-1.58,1.82-2.32.02-.03.04-.06.06-.09.03-.04.06-.08.08-.12.3-.45.56-.88.79-1.3.07-.13.14-.26.21-.39.01-.02.02-.05.04-.07.05-.09.09-.18.14-.26.03-.06.06-.12.09-.18.03-.05.05-.1.08-.15.03-.05.05-.11.08-.16.01-.02.02-.05.03-.07.03-.06.06-.13.09-.19.01-.03.03-.06.04-.09.01-.02.02-.05.03-.07.45-1.02.7-1.82.84-2.24.02-.05.03-.1.04-.15,0,0,0,0,0,0,.2-.64.4-1.51.49-2.17.01-.07.02-.15.03-.22.02-.14.04-.28.06-.41.07-.49.11-1.11.13-1.67,0-.19.02-.37.02-.56.14-50.84.34-118.64.48-169.48ZM1291.4,869.69s0-.01,0-.02c-.1-.42-.37-1.52-.96-4.12-.21-.9-.39-1.73-.56-2.43.1.41.21.9.34,1.5.41,1.79.8,3.51,1.18,5.07ZM1296.27,811.7s0,.07,0,.1c0-.03,0-.07,0-.1ZM1296.22,811.32s0,.05.01.08c0-.03,0-.05-.01-.08ZM1265.79,811.22s0,.03,0,.05c0-.02,0-.03,0-.05ZM1265.74,811.6s0,.07,0,.1c0-.03,0-.07,0-.1ZM1262.76,837.96h0c.19-.43.44-.86.72-1.28-.29.42-.53.85-.72,1.28ZM1272.02,862.29c-.05.21-.11.44-.17.71.06-.26.12-.5.17-.71h0ZM1270.27,869.67c-.07.26-.13.52-.19.78,0,0,0,0,0,0,.06-.23.12-.48.2-.78ZM1249.01,890.26c-.2.3-.39.61-.56.91.17-.31.36-.61.56-.91ZM1247.23,893.98c-.09.32-.18.63-.24.95.07-.32.15-.64.24-.95Z"/>
              <path class="cls-17" d="M1265.69,813.98c0-.06,0-.12,0-.17,0,.06,0,.12,0,.17Z"/>
            </g>
            <g>
              <path class="cls-23" d="M1301.32,952.37c-11.72,6.58-30.45,6.39-41.84-.42-5.6-3.35-8.38-7.67-8.37-11.99l-.36,127.27c-.01,4.31,2.77,8.64,8.37,11.99,11.39,6.81,30.12,7,41.84.42,5.96-3.34,8.95-7.79,8.97-12.25l.36-127.27c-.01,4.46-3.01,8.9-8.97,12.25Z"/>
              <path class="cls-5" d="M1301.32,952.37c-11.72,6.58-30.45,6.39-41.84-.42-11.39-6.81-11.12-17.66.59-24.23,11.72-6.58,30.45-6.39,41.84.42,11.39,6.81,11.12,17.66-.59,24.23Z"/>
            </g>
          </g>
          <g class="cls-11">
            <path class="cls-10" d="M1260.82,1082.97c-2.88,0-5.21-2.33-5.21-5.21v-168.19c.02-.82.51-20.18,9.4-30.76,1.85-2.2,5.13-2.49,7.33-.64s1,5.13-.85,7.33c-5.42,6.45-5.37,19.62-5.47,24.23v171c0,2.88-2.33,2.23-5.21,2.23Z"/>
          </g>
          <g class="cls-11">
            <path class="cls-10" d="M1275.7,857.99c-1.23,0-2.44-1.29-3.25-2.34-6.21-8.08-5.09-14.67-3.23-25.6.65-3.8,1.38-8.1,2.04-13.46.27-2.24,2.31-3.84,4.56-3.57,2.24.27,3.09,4.54,2.82,6.79-.68,5.56-.72,7.92-1.35,11.62-1.89,11.09-2.23,15.69,1.64,20.72,1.38,1.79,1.04,3.62-.75,4.99-.74.57-1.62.85-2.49.85Z"/>
          </g>
          <ellipse class="cls-8" cx="1280.52" cy="788.26" rx="8.92" ry="6.34"/>
        </g>
      </g>
      <g>
        <path class="cls-20" d="M281.82,819.09c-23.24-15.52-60.8-15.52-83.88,0-23.09,15.52-22.97,40.69.27,56.21,23.23,15.52,60.79,15.52,83.88,0,23.09-15.52,22.97-40.69-.27-56.21Z"/>
        <g>
          <g>
            <path class="cls-25" d="M256.52,734.41c-13.63,7.65-35.42,7.43-48.67-.49-13.25-7.92-12.94-20.54.69-28.19,13.63-7.65,35.42-7.43,48.67.49s12.94,20.54-.69,28.19Z"/>
            <path class="cls-23" d="M283.79,733.98c-.02-1.03-.1-2.41-.2-3.44-.07-.68-.25-1.57-.35-2.24-.17-1.06-.59-2.43-.91-3.46-.35-1.12-.94-2.57-1.46-3.62-.64-1.28-1.62-2.93-2.39-4.14-.79-1.25-2.09-2.76-3.07-3.88-.72-.82-1.77-1.82-2.57-2.56-.63-.57-1.48-1.33-2.17-1.83-1.42-1.04-3.35-2.4-4.85-3.33-.97-.6-2.32-1.31-3.33-1.83-.85-.43-2-.96-2.87-1.34-2.68-1.17-5.02-1.9-6.42-2.34-.67-.21-3.13-.95-6.59-1.63-1-.2-2.35-.42-3.36-.57-1-.15-2.34-.32-3.35-.41-1.01-.09-2.36-.23-3.38-.26-1.02-.03-2.37-.1-3.39-.11-1.02-.01-2.38.03-3.39.04-1.99.02-4,.24-6.78.54-1.04.11-2.42.34-3.46.52-.99.17-2.3.43-3.28.65-3.02.68-4.97,1.3-6.65,1.86-.93.31-2.16.77-3.07,1.14-1.05.43-2.43,1.06-3.46,1.53-1.16.53-2.66,1.32-3.73,1.99-1.51.95-3.53,2.21-4.92,3.33-1,.8-2.29,1.93-3.23,2.8-.59.54-1.33,1.31-1.85,1.92-2.17,2.52-2.39,2.85-4.14,5.7-.41.67-.87,1.6-1.21,2.31-.3.63-.65,1.5-.91,2.15-.26.65-.56,1.53-.74,2.2-.28,1.02-.59,2.41-.78,3.45-.25,1.35-.32,3.18-.37,4.54-.02,7.48,4.8,14.98,14.52,20.79,19.75,11.81,52.23,12.13,72.55.73h0c10.33-5.79,15.52-13.5,15.54-21.23ZM207.85,733.92c-13.25-7.92-12.94-20.54.69-28.19,13.63-7.65,35.42-7.43,48.67.49,13.25,7.92,12.94,20.54-.69,28.19-13.63,7.65-35.42,7.43-48.67-.49Z"/>
            <path class="cls-23" d="M268.25,755.21h0c-20.32,11.4-52.8,11.07-72.55-.73-9.71-5.81-14.54-13.31-14.52-20.79l-.33,116.57c-.02,7.48,4.8,14.98,14.52,20.79,19.75,11.81,52.23,12.13,72.55.73h0c10.33-5.79,15.52-13.5,15.54-21.23l.33-116.57c-.02,7.73-5.22,15.44-15.54,21.23Z"/>
            <path class="cls-10" d="M268.25,773.07h0c-20.32,7.63-52.8,7.41-72.55-.49-9.71-3.88-14.54-8.9-14.52-13.91l-.33,78c-.02,5.01,4.8,10.02,14.52,13.91,19.75,7.9,52.23,8.12,72.55.49h0c10.33-3.88,15.52-9.04,15.54-14.21l.33-78c-.02,5.17-5.22,10.33-15.54,14.21Z"/>
          </g>
          <g>
            <path class="cls-23" d="M257.81,724.7h0c-14.47,8.12-37.61,7.89-51.68-.52-6.92-4.14-10.35-9.48-10.34-14.81l-.03,11.37c-.02,5.33,3.42,10.67,10.34,14.81,14.07,8.41,37.2,8.64,51.68.52h0c7.36-4.13,11.06-9.62,11.07-15.12l.03-11.37c-.02,5.51-3.72,11-11.07,15.12Z"/>
            <path class="cls-25" d="M257.81,724.7c-14.47,8.12-37.61,7.89-51.68-.52-14.07-8.41-13.74-21.81.73-29.93,14.47-8.12,37.61-7.89,51.68.52,14.07,8.41,13.74,21.81-.73,29.93Z"/>
          </g>
          <g>
            <path class="cls-4" d="M264.93,667.56h0c-18.48,10.37-48.03,10.07-66-.67-8.84-5.28-13.22-12.11-13.21-18.91l-.16,55.66c-.02,6.81,4.37,13.63,13.21,18.91,17.97,10.74,47.52,11.04,66,.67v-.16s0,.16,0,.16c9.39-5.27,14.12-12.28,14.14-19.32l.16-55.66c-.02,7.03-4.75,14.05-14.14,19.32Z"/>
            <path class="cls-25" d="M264.93,667.56c-18.48,10.37-48.03,10.07-66-.67-17.97-10.74-17.55-27.86.94-38.23s48.03-10.07,66,.67c17.97,10.74,17.55,27.86-.94,38.23Z"/>
          </g>
          <g>
            <path class="cls-29" d="M296.24,629.42l-28.1-16.23c-2.81-1.62-6.49-2.44-10.17-2.44-3.68,0-7.35.81-10.14,2.44l-17.49,10.17c-11.29.26-22.43,2.88-31.01,7.87-8.59,4.99-13.08,11.45-13.49,17.99l-17.49,10.17c-3.37,1.96-4.7,4.64-3.99,7.18.47,1.68,1.82,3.29,4.06,4.58l28.1,16.23c3.29,1.9,7.76,2.69,12.03,2.37,3.04-.23,5.97-1.02,8.29-2.37l17.49-10.17c11.28-.26,22.43-2.88,31.01-7.87,8.59-4.99,13.08-11.45,13.49-17.99l17.49-10.17c2.8-1.62,4.19-3.75,4.17-5.88s-1.43-4.26-4.24-5.88Z"/>
            <polygon class="cls-29" points="164.16 658.98 164.16 665.36 170.53 666.5 170.18 656.12 164.16 658.98"/>
            <polygon class="cls-29" points="300.49 628.96 300.49 635.31 294.56 636.78 292.43 629.31 300.49 628.96"/>
            <path class="cls-21" d="M296.24,623.07l-28.1-16.23c-2.81-1.62-6.49-2.44-10.17-2.44s-7.35.81-10.14,2.44l-17.49,10.17c-11.29.26-22.43,2.88-31.01,7.87-8.59,4.99-13.08,11.45-13.49,17.99l-17.49,10.17c-3.37,1.96-4.7,4.64-3.99,7.18.47,1.68,1.82,3.29,4.06,4.58l28.1,16.23c3.29,1.9,7.76,2.69,12.03,2.37,3.04-.23,5.97-1.02,8.29-2.37l17.49-10.17c11.28-.26,22.43-2.88,31.01-7.87,8.59-4.99,13.08-11.45,13.49-17.99l17.49-10.17c2.8-1.62,4.19-3.75,4.17-5.88s-1.43-4.26-4.24-5.88Z"/>
            <path class="cls-29" d="M290.39,627.24l-31.61-18.25c-.28-.16-.74-.16-1.02,0-.28.16-.28.43,0,.59l31.61,18.25c.28.16.74.16,1.02,0,.28-.16.28-.43,0-.59Z"/>
            <path class="cls-29" d="M283.61,631.21l-31.61-18.25c-.28-.16-.74-.16-1.02,0-.28.16-.28.43,0,.59l31.61,18.25c.28.16.74.16,1.02,0,.28-.16.28-.43,0-.59Z"/>
            <path class="cls-29" d="M275.92,635.06l-29.45-17c-.26-.15-.69-.15-.95,0-.26.15-.26.4,0,.55l29.45,17c.26.15.69.15.95,0,.26-.15.26-.4,0-.55Z"/>
            <path class="cls-29" d="M218.95,668.49l-31.61-18.25c-.28-.16-.74-.16-1.02,0-.28.16-.28.43,0,.59l31.61,18.25c.28.16.74.16,1.02,0,.28-.16.28-.43,0-.59Z"/>
            <path class="cls-29" d="M212.16,672.47l-31.61-18.25c-.28-.16-.74-.16-1.02,0-.28.16-.28.43,0,.59l31.61,18.25c.28.16.74.16,1.02,0,.28-.16.28-.43,0-.59Z"/>
            <path class="cls-29" d="M205.05,676.72l-29.45-17c-.26-.15-.69-.15-.95,0-.26.15-.26.4,0,.55l29.45,17c.26.15.69.15.95,0,.26-.15.26-.4,0-.55Z"/>
          </g>
          <g>
            <path class="cls-4" d="M247.29,637.45c-1.34-29.65-2.69-59.3-4.03-88.95.08,1.67-1.01,3.34-3.23,4.59h0c-4.23,2.37-10.99,2.31-15.1-.15-2.1-1.25-3.1-2.89-3.02-4.5-1.51,29.64-3.02,59.28-4.54,88.92-.12,2.26,1.29,4.55,4.23,6.31,5.76,3.44,15.24,3.54,21.16.21h0c3.12-1.75,4.64-4.1,4.53-6.44Z"/>
            <path class="cls-4" d="M243.26,548.68c0-.42,0-.99-.05-1.41-.04-.32-.07-.76-.12-1.08-.06-.41-.16-.95-.25-1.36-.07-.3-.17-.71-.26-1.01-.12-.39-.3-.91-.44-1.3-.15-.41-.4-.93-.59-1.32-.41-.83-1.12-1.94-1.87-2.78-.16-.18-.38-.42-.56-.59-.26-.24-.61-.56-.88-.78-.32-.27-.78-.57-1.13-.78-.27-.17-1.25-.73-2.49-1.04-.65-.16-1.13-.2-1.19-.2-.22-.02-.52-.04-.75-.04-.42,0-.75.03-.75.03-.23.02-.54.06-.77.1-.13.02-.29.05-.42.08q-.42.1-.89.25c-.16.05-.38.13-.53.2-.74.32-.97.46-1.56.82-.36.22-.79.57-1.12.84-.32.26-.7.64-.98.94-.34.38-.76.91-1.06,1.33-.24.33-.52.8-.72,1.16-.19.34-.43.8-.58,1.16-.23.56-.51,1.31-.7,1.88-.12.39-.25.92-.33,1.31-.08.4-.19.94-.23,1.34-.07.65-.12,1.53-.14,2.19,0,1.56,1,3.12,3.02,4.33,4.11,2.46,10.87,2.53,15.1.15h0c2.15-1.21,3.23-2.81,3.24-4.42Z"/>
          </g>
        </g>
      </g>
      <g>
        <polygon class="cls-20" points="618.16 1044.79 814.95 1042.97 844.03 947.7 647.18 944.66 618.16 1044.79"/>
        <path class="cls-6" d="M649.61,997.63c.51,41.64-28.2,59.17-64.13,39.15-35.93-20.02-65.47-70.01-65.98-111.66-.51-41.64,28.2-59.17,64.13-39.15,35.93,20.02,65.47,70.01,65.98,111.66Z"/>
        <path class="cls-29" d="M793.81,909.68h0c-.48-39.47-28.48-86.85-62.53-105.83-16.75-9.33-31.84-10.06-42.8-3.69l-130.38,75.77c10.96-6.37,26.05-5.64,42.8,3.69,34.05,18.98,62.05,66.36,62.53,105.83h0c.25,20.06-6.66,34.22-17.99,40.8l130.38-75.77c11.32-6.58,18.23-20.74,17.99-40.8Z"/>
        <path class="cls-2" d="M790.14,908.13c.46,37.44-25.35,53.2-57.65,35.2-32.3-18-58.86-62.94-59.31-100.38-.46-37.44,25.35-53.2,57.65-35.2s58.86,62.94,59.31,100.38Z"/>
        <path class="cls-2" d="M583.83,1035.85h0c-35.93-21.06-64.73-71.48-64.34-112.61.19-20.23,7.41-34.44,18.98-41.16l15.71-9.13c-11.56,6.72-18.78,20.93-18.98,41.16-.4,41.13,28.41,91.54,64.34,112.61h0c18.26,10.71,34.84,11.77,46.79,4.83l-15.71,9.13c-11.95,6.94-28.53,5.88-46.79-4.83Z"/>
        <path class="cls-6" d="M633.91,1038.69c-11.95,6.94-28.53,5.88-46.79-4.83-35.93-21.06-64.73-71.48-64.34-112.61.19-19.25,6.74-33.04,17.33-40.12l-1.63.95c-11.56,6.72-18.78,20.93-18.98,41.16-.4,41.13,28.41,91.54,64.34,112.61,18.26,10.7,34.84,11.77,46.79,4.83l15.71-9.13c-.56.32-1.13.62-1.71.91l-10.73,6.23Z"/>
        <path class="cls-9" d="M711.69,804.28c-3.08-1.78-8.04-1.78-11.1,0l-102.65,59.65c-3.06,1.78-3.04,4.65.04,6.43,3.08,1.78,8.04,1.78,11.1,0l102.65-59.65c3.06-1.78,3.04-4.65-.04-6.43Z"/>
        <g>
          <path class="cls-12" d="M485.96,1078.88c7.8,5.04,20.85,5.65,29.15,1.37,4.21-2.17,6.38-5.19,6.48-8.29l.84-10.69-13.35-.91c-4.3-1.19-9.12-1.51-13.61-.93l-14.16-.97-.83,10.72c-.65,3.34,1.16,6.9,5.47,9.68Z"/>
          <path class="cls-14" d="M515.95,1069.44c8.29-4.28,8.69-11.84.89-16.88-7.8-5.04-20.85-5.65-29.15-1.37-8.29,4.28-8.69,11.84-.89,16.88,7.8,5.04,20.85,5.65,29.15,1.37Z"/>
        </g>
        <g>
          <path class="cls-12" d="M564.96,1057.37c6.64,6.49,19.31,9.7,28.29,7.16,4.55-1.29,7.28-3.81,8.01-6.83l2.96-10.3-12.9-3.56c-3.98-2.03-8.63-3.3-13.15-3.62l-13.68-3.77-2.95,10.34c-1.3,3.15-.24,6.99,3.43,10.58Z"/>
          <path class="cls-14" d="M596.22,1054.11c8.98-2.54,10.88-9.87,4.24-16.36-6.64-6.49-19.31-9.7-28.29-7.16-8.98,2.54-10.88,9.87-4.24,16.36,6.64,6.49,19.31,9.7,28.29,7.16Z"/>
        </g>
        <g>
          <path class="cls-12" d="M651.1,998.89l-6.31-8.69-10.11,6.76c-4.78,1.78-9.44,4.9-12.95,8.66l-11.15,7.46,6.33,8.88h0c1.66,2.76,5.18,4.29,10.07,3.89,9.3-.75,20.05-8.17,24.01-16.57,1.99-4.22,1.88-7.88.11-10.39Z"/>
          <path class="cls-14" d="M635.29,987.12c-9.3.75-20.05,8.17-24.01,16.58-3.96,8.4.37,14.6,9.68,13.85,9.3-.75,20.05-8.17,24.01-16.57,3.96-8.4-.38-14.61-9.68-13.86Z"/>
        </g>
        <g>
          <path class="cls-12" d="M620.81,1033.28c.08-.26.13-.52.18-.79l2.08-9.15-8.48-1.93c-6.32-4.47-15.74-6.61-23.34-5.31l-8.39-1.91-2.1,9.24c-.79,3.04.48,6.57,4,9.83,6.85,6.34,19.58,9.24,28.45,6.47,4.21-1.32,6.79-3.67,7.6-6.46h0Z"/>
          <path class="cls-14" d="M618.96,1014c-6.85-6.34-19.58-9.24-28.45-6.47-8.87,2.77-10.5,10.16-3.66,16.5,6.85,6.34,19.58,9.24,28.45,6.47,8.87-2.77,10.5-10.16,3.66-16.5Z"/>
        </g>
        <g>
          <path class="cls-12" d="M506.06,1018.83c.01-.27.01-.54,0-.81l-.05-9.38-8.7.05c-7.17-2.91-16.82-2.86-23.93.13l-8.6.05.05,9.48c-.08,3.14,1.96,6.29,6.13,8.67,8.11,4.62,21.17,4.55,29.18-.16,3.8-2.24,5.77-5.12,5.93-8.02h0Z"/>
          <path class="cls-14" d="M499.89,1000.47c-8.11-4.62-21.17-4.55-29.18.16s-7.92,12.27.19,16.9c8.11,4.62,21.17,4.55,29.18-.16,8.01-4.71,7.92-12.28-.19-16.9Z"/>
        </g>
        <g class="cls-24">
          <g>
            <path class="cls-12" d="M737.83,921.72c-4.55-8.1-15.81-14.73-25.14-14.81-4.73-.04-8.06,1.61-9.6,4.3l-5.73,9.06,11.38,7.03c3.25,3.06,7.36,5.59,11.6,7.17l12.07,7.46,5.74-9.1c2.13-2.66,2.19-6.64-.32-11.12Z"/>
            <path class="cls-14" d="M706.91,916.07c-9.33-.08-13.21,6.42-8.66,14.51,4.55,8.1,15.81,14.73,25.14,14.81,9.33.08,13.21-6.42,8.66-14.51-4.55-8.1-15.81-14.73-25.14-14.81Z"/>
          </g>
          <g>
            <path class="cls-12" d="M755.38,933.16c-4.55-8.1-15.81-14.73-25.14-14.81-4.73-.04-8.06,1.61-9.6,4.3l-5.73,9.06,11.38,7.03c3.25,3.06,7.36,5.59,11.6,7.17l12.07,7.46,5.74-9.1c2.13-2.66,2.19-6.64-.32-11.12Z"/>
            <path class="cls-14" d="M724.45,927.51c-9.33-.08-13.21,6.42-8.66,14.51,4.55,8.1,15.81,14.73,25.14,14.81,9.33.08,13.21-6.42,8.66-14.51-4.55-8.1-15.81-14.73-25.14-14.81Z"/>
          </g>
          <g>
            <path class="cls-12" d="M675.88,955.47l-10.74.16-.29,12.16c-1.3,4.94-1.42,10.55-.37,15.57l-.32,13.41,10.9-.07h0c3.21.23,6.48-1.77,8.97-5.99,4.74-8.04,4.85-21.1.26-29.17-2.31-4.05-5.36-6.07-8.43-6.07Z"/>
            <path class="cls-14" d="M657.15,961.63c-4.74,8.04-4.85,21.1-.26,29.17,4.6,8.07,12.16,8.1,16.9.05,4.74-8.04,4.85-21.1.26-29.17-4.6-8.07-12.16-8.1-16.9-.05Z"/>
          </g>
          <g>
            <path class="cls-12" d="M697.4,920.02l-10.74.16-.29,12.16c-1.3,4.94-1.42,10.55-.37,15.57l-.32,13.41,10.9-.07h0c3.21.23,6.48-1.77,8.97-5.99,4.74-8.04,4.85-21.1.26-29.17-2.31-4.05-5.36-6.07-8.43-6.07Z"/>
            <path class="cls-14" d="M678.68,926.17c-4.74,8.04-4.85,21.1-.26,29.17,4.6,8.07,12.16,8.1,16.9.05,4.74-8.04,4.85-21.1.26-29.17-4.6-8.07-12.16-8.1-16.9-.05Z"/>
          </g>
          <g>
            <path class="cls-12" d="M760.77,909.45l-10.74.16-.29,12.16c-1.3,4.94-1.42,10.55-.37,15.57l-.32,13.41,10.9-.07h0c3.21.23,6.48-1.77,8.97-5.99,4.74-8.04,4.85-21.1.26-29.17-2.31-4.05-5.36-6.07-8.43-6.07Z"/>
            <path class="cls-14" d="M742.04,915.6c-4.74,8.04-4.85,21.1-.26,29.17,4.6,8.07,12.16,8.1,16.9.05,4.74-8.04,4.85-21.1.26-29.17-4.6-8.07-12.16-8.1-16.9-.05Z"/>
          </g>
          <g>
            <path class="cls-12" d="M726.38,930.15l-10.74.16-.29,12.16c-1.3,4.94-1.42,10.55-.37,15.57l-.32,13.41,10.9-.07h0c3.21.23,6.48-1.77,8.97-5.99,4.74-8.04,4.85-21.1.26-29.17-2.31-4.05-5.36-6.07-8.43-6.07Z"/>
            <path class="cls-14" d="M707.65,936.3c-4.74,8.04-4.85,21.1-.26,29.17,4.6,8.07,12.16,8.1,16.9.05,4.74-8.04,4.85-21.1.26-29.17s-12.16-8.1-16.9-.05Z"/>
          </g>
          <g>
            <path class="cls-12" d="M749.95,909.13l-7.75-7.43-8.74,8.46c-4.39,2.6-8.42,6.51-11.2,10.83l-9.65,9.33,7.81,7.61h0c2.13,2.42,5.86,3.3,10.6,2.03,9.02-2.4,18.28-11.61,20.67-20.59,1.2-4.5.45-8.09-1.74-10.24Z"/>
            <path class="cls-14" d="M732.29,900.36c-9.02,2.4-18.27,11.62-20.67,20.59-2.4,8.97,2.97,14.3,11.99,11.91,9.02-2.4,18.28-11.61,20.67-20.59,2.4-8.97-2.97-14.31-11.99-11.91Z"/>
          </g>
          <g>
            <path class="cls-12" d="M717.29,964.42c-.12-.24-.25-.48-.4-.71l-4.62-8.17-7.57,4.28c-7.68.95-16.08,5.71-20.83,11.78l-7.49,4.24,4.67,8.25c1.46,2.78,4.78,4.54,9.58,4.58,9.33.08,20.7-6.35,25.4-14.36,2.23-3.81,2.55-7.28,1.27-9.9h0Z"/>
            <path class="cls-14" d="M702.95,951.41c-9.33-.08-20.7,6.35-25.39,14.37-4.69,8.02-.93,14.58,8.4,14.66,9.33.08,20.7-6.35,25.4-14.36,4.69-8.02.93-14.58-8.4-14.66Z"/>
          </g>
          <g>
            <path class="cls-12" d="M693.43,944.77c-.12-.24-.25-.48-.4-.71l-4.62-8.17-7.57,4.28c-7.68.95-16.08,5.71-20.83,11.78l-7.49,4.24,4.67,8.25c1.46,2.78,4.78,4.54,9.58,4.58,9.33.08,20.7-6.35,25.4-14.36,2.23-3.81,2.55-7.28,1.27-9.9h0Z"/>
            <path class="cls-14" d="M679.09,931.75c-9.33-.08-20.7,6.35-25.39,14.37-4.69,8.02-.93,14.58,8.4,14.66,9.33.08,20.7-6.35,25.4-14.36s.93-14.58-8.4-14.66Z"/>
          </g>
        </g>
        <path class="cls-1" d="M663.77,989.49h0c-.51-41.64-30.05-91.63-65.98-111.66-17.67-9.85-33.59-10.61-45.15-3.89l-15.71,9.13c11.56-6.72,27.48-5.95,45.15,3.89,35.93,20.02,65.47,70.01,65.98,111.66h0c.26,21.16-7.03,36.1-18.98,43.04l15.71-9.13c11.95-6.94,19.24-21.88,18.98-43.04Z"/>
        <path class="cls-32" d="M665.32,988.5h0c-.51-41.64-30.05-91.63-65.98-111.66-17.67-9.85-33.59-10.61-45.15-3.89l-15.71,9.13c11.56-6.72,27.48-5.95,45.15,3.89,35.93,20.02,65.47,70.01,65.98,111.66h0c.26,21.16-7.03,36.1-18.98,43.04l15.71-9.13c11.95-6.94,19.24-21.88,18.98-43.04Z"/>
        <path class="cls-4" d="M661.53,993.49c.01-20.36-6.75-43.38-19.05-64.81-12.3-21.44-28.67-38.76-46.11-48.78-.6-.35-1.37-.14-1.71.46-.35.6-.14,1.37.46,1.71,35.26,20.25,63.93,70.23,63.9,111.41-.01,19.22-6.2,33.63-17.45,40.83l4.77-2.77c2.49-1.44,4.77-3.24,6.82-5.36,1.1-1.67,2.1-3.46,2.99-5.37,3.56-7.6,5.37-16.79,5.38-27.32Z"/>
        <path class="cls-4" d="M653.57,994.15s.01,0,.02,0c.69,0,1.25-.58,1.24-1.27-.25-20.36-7.31-43.28-19.88-64.56-12.57-21.28-29.17-38.39-46.74-48.18-11.31-6.3-22.21-9.1-31.86-8.33-.74.35-1.46.73-2.16,1.14l-4.55,2.65c10.66-3.2,23.64-.91,37.35,6.73,35.52,19.79,64.83,69.4,65.33,110.57,0,.69.57,1.24,1.26,1.24Z"/>
        <g>
          <path class="cls-12" d="M567.39,1036.54c.02-.27.03-.54.02-.81l.22-9.38-8.7-.2c-7.09-3.12-16.74-3.34-23.93-.55l-8.6-.2-.22,9.48c-.17,3.14,1.78,6.35,5.88,8.84,7.97,4.85,21.03,5.16,29.17.68,3.86-2.13,5.92-4.95,6.16-7.85h0Z"/>
          <path class="cls-14" d="M561.75,1018.01c-7.97-4.85-21.03-5.15-29.17-.67-8.14,4.48-8.27,12.04-.3,16.9,7.97,4.85,21.03,5.16,29.17.68,8.14-4.48,8.27-12.05.3-16.9Z"/>
        </g>
      </g>
      <g>
        <path class="cls-29" d="M1087.82,1162.28l-261.76-151.13c-14.81-8.55-38.75-8.55-53.46,0l-156.67,91.05c-6.68,3.88-11.02,6.25-10.98,11.36.08,11.3,3.07,14.94,11.16,19.61l261.76,151.13c14.81,8.55,38.75,8.55,53.46,0l156.67-91.05c8.06-4.69,11.11-8.25,10.96-18.54-.07-5.1-4.44-8.56-11.14-12.42ZM1001.06,1232.73c-.03.06-.06.12-.1.18.04-.06.07-.12.1-.18ZM705.69,1063.28c.27-.16.59-.28.92-.36s.69-.12,1.05-.12c-.36,0-.71.04-1.05.12s-.65.2-.92.36c-.41.24-.66.53-.76.84.1-.31.35-.6.76-.84ZM705.7,1065.56c-.41-.24-.67-.53-.77-.83.1.31.36.6.77.83l204.35,117.98-204.35-117.98Z"/>
        <g class="cls-13">
          <g>
            <path class="cls-4" d="M1087.82,1158.37l-261.76-151.13c-14.81-8.55-38.75-8.55-53.46,0l-156.67,91.05c-14.72,8.55-14.64,22.42.17,30.97l261.76,151.13c14.81,8.55,38.75,8.55,53.46,0l156.67-91.05c14.72-8.55,14.64-22.42-.17-30.97ZM1000.38,1229.5c-1.09.63-2.86.63-3.95,0l-290.72-167.85c-1.09-.63-1.1-1.65,0-2.29,1.09-.63,2.86-.63,3.95,0l290.72,167.85c1.09.63,1.1,1.66.01,2.29Z"/>
            <path class="cls-10" d="M1000.36,1227.22l-290.72-167.85c-1.09-.63-2.86-.63-3.95,0-1.09.63-1.08,1.66,0,2.29l290.72,167.85c1.09.63,2.86.63,3.95,0,1.09-.63,1.08-1.66-.01-2.29Z"/>
          </g>
        </g>
        <g>
          <g>
            <path class="cls-29" d="M794.88,1051.86c-.12-.51-.26-1.01-.42-1.52.16.51.3,1.01.42,1.52ZM791.81,1044.43c.28.47.54.95.79,1.43-.25-.48-.52-.96-.79-1.43ZM823.77,1034.68c-.02-.3-.07-.69-.11-.99-.09-.67-.28-1.55-.38-1.91-.07-.25-.15-.58-.23-.82-.08-.24-.18-.55-.27-.79-.08-.23-.2-.53-.3-.76-.09-.22-.22-.51-.32-.72-.11-.21-.24-.49-.35-.69-.11-.21-.26-.48-.38-.68-.24-.4-.59-.92-.85-1.3-.14-.2-.33-.46-.49-.64-.16-.2-.37-.46-.54-.65-.17-.19-.4-.43-.57-.62-.17-.19-.43-.42-.61-.6-.22-.21-.52-.47-.75-.67-.26-.22-.62-.5-.9-.7-.5-.37-1.2-.8-1.74-1.11-.4-.23-.94-.51-1.36-.68-.63-.26-1.48-.61-2.15-.79-.68-.18-1.59-.39-2.28-.5-.61-.1-1.44-.18-2.06-.18-.76,0-1.78.05-2.53.13-.6.07-1.4.23-1.98.38-.58.15-1.34.38-1.9.6-.59.24-1.32.6-1.96.92-.16.07-.31.15-.46.24l-23.51,13.66-9.49,5.51c-.54.33-1.23.79-1.74,1.16-.32.23-.72.58-1.02.84-.15.13-.96.85-1.9,2-.48.59-1.08,1.43-1.44,2.1-.33.6-.73,1.43-1.01,2.05-.15.33-.3.8-.42,1.14-.18.53-.35,1.24-.48,1.78-.08.34-.15.8-.2,1.14-.07.44-.11,1.04-.14,1.48-.02.33-.02.77-.02,1.09,0,.37.03.85.06,1.22.03.32.07.75.12,1.07.04.27.1.64.16.91.06.26.13.62.2.88.07.26.17.6.24.85.07.24.18.56.27.8.17.45.41,1.04.62,1.47.1.21.24.49.35.7.11.2.26.48.38.68.12.2.28.47.41.66.13.2.31.46.45.65.14.19.34.45.48.64.15.2.37.46.54.65.34.38.82.87,1.18,1.23.22.21.52.47.75.67.27.22.63.5.9.7.25.18.58.41.84.57.42.26,1,.59,1.43.82.3.16.7.35,1.02.48.32.13.74.31,1.06.42.64.2,1.51.45,2.17.61.71.17,1.69.26,2.42.33.63.05,1.47.06,2.1,0,.59-.06,1.39-.15,1.98-.25.39-.06.89-.2,1.27-.29.53-.12,1.21-.35,1.71-.56.74-.31,1.71-.78,2.42-1.16l9.49-5.51,23.51-13.66c.08-.04.15-.09.23-.14.5-.31,1.09-.69,1.52-1.02.62-.49,1.41-1.2,1.97-1.76.31-.31.69-.74.95-1.08.46-.61,1.07-1.44,1.44-2.1.34-.6.74-1.42,1.01-2.05.22-.52.47-1.24.62-1.79.18-.68.39-1.59.48-2.28.06-.44.11-1.04.14-1.48.02-.25.02-.57.02-.85,0-.08,0-.16,0-.25,0-.37-.03-.85-.06-1.22ZM784.43,1036.3c.41.28.81.57,1.21.88-.4-.31-.8-.61-1.21-.88ZM787.37,1038.72c.37.36.74.74,1.09,1.14-.36-.39-.72-.77-1.09-1.14ZM788.99,1040.46c.69.82,1.35,1.68,1.95,2.59-.61-.91-1.26-1.77-1.95-2.59Z"/>
            <g>
              <path class="cls-30" d="M818.71,1033.63c0-.37-.03-.85-.06-1.22-.02-.3-.07-.69-.11-.99-.09-.67-.28-1.55-.38-1.91-.07-.25-.15-.58-.23-.82-.08-.24-.18-.55-.27-.79-.08-.23-.2-.53-.3-.76-.09-.22-.22-.51-.32-.72-.1-.21-.24-.49-.35-.69-.11-.21-.26-.48-.38-.68-.24-.4-.59-.92-.85-1.3-.14-.2-.33-.46-.49-.64-.16-.2-.37-.46-.54-.65-.17-.19-.4-.43-.57-.62-.17-.19-.43-.42-.61-.6-.22-.21-.52-.47-.75-.67-.26-.22-.63-.5-.9-.7-.5-.37-1.2-.8-1.74-1.11-.4-.23-.94-.51-1.36-.68-.63-.27-1.48-.61-2.15-.79-.68-.18-1.59-.39-2.28-.5-.61-.1-1.44-.18-2.06-.18-.76,0-1.78.05-2.53.13-.6.07-1.4.23-1.98.38-.58.15-1.34.38-1.9.6-.59.24-1.32.6-1.96.92-.16.07-.31.15-.46.24l-23.51,13.66c2.15-1.25,5.12-1.11,8.41.73,6.69,3.73,12.2,13.04,12.29,20.8.05,3.94-1.31,6.72-3.54,8.02l23.51-13.66c.08-.04.15-.09.23-.14.5-.31,1.09-.69,1.52-1.02.62-.49,1.41-1.2,1.97-1.76.31-.31.69-.74.95-1.08.46-.61,1.07-1.44,1.44-2.1.34-.6.74-1.42,1.01-2.05.22-.52.47-1.24.62-1.79.18-.68.39-1.59.48-2.28.06-.44.11-1.04.14-1.48.02-.25.02-.57.02-.85,0-.08,0-.16,0-.25Z"/>
              <path class="cls-27" d="M790.37,1054.07c-.1-7.76-5.6-17.07-12.29-20.8-3.29-1.83-6.26-1.98-8.41-.73l-9.49,5.51c-.54.33-1.23.79-1.74,1.16-.32.23-.72.58-1.02.84-.15.13-.96.85-1.9,2-.48.59-1.08,1.43-1.44,2.1-.33.6-.73,1.42-1.01,2.05-.15.33-.3.8-.42,1.14-.18.53-.35,1.24-.48,1.78-.08.34-.15.8-.2,1.14-.07.44-.11,1.04-.14,1.48-.02.33-.02.77-.02,1.09,0,.37.03.85.06,1.22.03.32.07.75.12,1.07.04.27.1.64.16.91.06.26.13.62.2.88.07.26.17.6.24.85.07.24.18.56.27.8.17.44.41,1.04.62,1.47.1.21.24.49.35.7.11.2.26.48.38.68.12.2.28.47.41.66.13.2.31.46.45.65.14.19.34.45.48.64.15.2.37.46.54.65.34.38.82.87,1.18,1.23.22.21.52.47.75.67.27.22.63.5.9.7.25.18.58.41.84.57.42.26,1,.59,1.43.82.3.16.7.35,1.02.48.32.13.74.31,1.06.42.64.2,1.51.45,2.17.61.71.17,1.69.26,2.42.33.63.05,1.47.06,2.1,0,.6-.06,1.39-.15,1.98-.24.39-.06.89-.2,1.27-.29.53-.12,1.21-.35,1.71-.56.74-.31,1.71-.78,2.42-1.16l9.49-5.51c2.23-1.29,3.58-4.08,3.54-8.02Z"/>
            </g>
            <path class="cls-28" d="M800.98,1020.3c-2.14-1.21-5.61-1.21-7.74,0l-28.1,15.92c-2.13,1.21-2.12,3.16.03,4.37,2.14,1.21,5.61,1.21,7.74,0l28.1-15.92c2.13-1.21,2.12-3.16-.03-4.37Z"/>
          </g>
          <g>
            <path class="cls-29" d="M851.87,1084.68c-.12-.51-.26-1.01-.42-1.52.16.51.3,1.01.42,1.52ZM848.79,1077.25c.28.47.54.95.79,1.43-.25-.48-.52-.96-.79-1.43ZM880.75,1067.5c-.02-.3-.07-.69-.11-.99-.09-.67-.28-1.55-.38-1.91-.07-.25-.15-.58-.23-.82-.08-.24-.18-.55-.27-.79-.08-.23-.2-.53-.3-.76-.09-.22-.22-.51-.32-.72-.11-.21-.24-.49-.35-.69-.11-.21-.26-.48-.38-.68-.24-.4-.59-.92-.85-1.3-.14-.2-.33-.46-.49-.64-.16-.2-.37-.46-.54-.65-.17-.19-.4-.43-.57-.62-.17-.19-.43-.42-.61-.6-.22-.21-.52-.47-.75-.67-.26-.22-.62-.5-.9-.7-.5-.37-1.2-.8-1.74-1.11-.4-.23-.94-.51-1.36-.68-.63-.27-1.48-.61-2.15-.79-.68-.18-1.59-.39-2.28-.5-.61-.1-1.44-.18-2.06-.18-.76,0-1.78.05-2.53.13-.6.07-1.4.23-1.98.38-.58.15-1.34.38-1.9.6-.59.24-1.32.6-1.96.92-.16.07-.31.15-.46.24l-23.51,13.66-9.49,5.51c-.54.33-1.23.79-1.74,1.16-.32.23-.72.58-1.02.84-.15.13-.96.85-1.9,2-.48.59-1.08,1.43-1.44,2.1-.33.6-.73,1.42-1.01,2.05-.15.33-.3.8-.42,1.14-.18.53-.35,1.24-.48,1.78-.08.34-.15.8-.2,1.14-.07.44-.11,1.04-.14,1.48-.02.33-.02.77-.02,1.09,0,.37.03.85.06,1.22.03.32.07.75.12,1.07.04.27.1.64.16.91.06.26.13.62.2.88.07.26.17.6.24.85.07.24.18.56.27.8.17.45.41,1.04.62,1.47.1.21.24.49.35.7.11.2.26.48.38.68.12.2.28.47.41.66.13.2.31.46.45.65.14.19.34.45.48.64.15.2.37.46.54.65.34.38.82.87,1.18,1.23.22.21.52.47.75.67.27.22.63.5.9.7.25.18.58.41.84.57.42.26,1,.59,1.43.82.3.16.7.35,1.02.48.32.13.74.31,1.06.42.64.2,1.51.45,2.17.61.71.17,1.69.26,2.42.33.63.05,1.47.06,2.1,0,.6-.06,1.39-.15,1.98-.25.39-.06.89-.2,1.27-.29.53-.12,1.21-.35,1.71-.56.74-.31,1.71-.78,2.42-1.16l9.49-5.51,23.51-13.66c.08-.04.15-.09.23-.14.5-.31,1.09-.69,1.52-1.02.62-.49,1.41-1.2,1.97-1.76.31-.31.69-.74.95-1.08.46-.61,1.07-1.44,1.44-2.1.34-.6.74-1.42,1.01-2.05.22-.52.47-1.24.62-1.79.18-.68.39-1.59.48-2.28.06-.44.11-1.04.14-1.48.02-.25.01-.57.02-.85,0-.08,0-.16,0-.25,0-.37-.03-.85-.06-1.22ZM841.41,1069.13c.41.28.81.57,1.21.88-.4-.31-.8-.61-1.21-.88ZM844.35,1071.54c.37.36.74.74,1.09,1.14-.36-.39-.72-.77-1.09-1.14ZM845.97,1073.28c.69.82,1.35,1.68,1.95,2.59-.61-.91-1.26-1.77-1.95-2.59Z"/>
            <g>
              <path class="cls-30" d="M875.7,1066.45c0-.37-.03-.85-.06-1.22-.02-.3-.07-.69-.11-.99-.09-.67-.28-1.55-.38-1.91-.07-.25-.15-.58-.23-.82-.08-.24-.18-.55-.27-.79-.08-.23-.2-.53-.3-.76-.09-.22-.22-.51-.32-.72-.1-.21-.24-.49-.35-.69-.11-.21-.26-.48-.38-.68-.24-.4-.59-.92-.85-1.3-.14-.2-.33-.46-.49-.64-.16-.2-.37-.46-.54-.65-.17-.19-.4-.43-.57-.62-.17-.19-.43-.42-.61-.6-.22-.21-.52-.47-.75-.67-.26-.22-.63-.5-.9-.7-.5-.36-1.2-.8-1.74-1.11-.4-.23-.94-.51-1.36-.68-.63-.27-1.48-.61-2.15-.79-.68-.18-1.59-.39-2.28-.5-.61-.1-1.44-.18-2.06-.18-.76,0-1.78.05-2.53.13-.6.07-1.4.23-1.98.38-.58.15-1.34.38-1.9.6-.59.24-1.32.6-1.96.92-.16.07-.31.15-.46.24l-23.51,13.66c2.15-1.25,5.12-1.11,8.41.73,6.69,3.73,12.2,13.04,12.29,20.8.05,3.94-1.31,6.72-3.54,8.02l23.51-13.66c.08-.04.15-.09.23-.14.5-.31,1.09-.69,1.52-1.02.62-.49,1.41-1.2,1.97-1.76.31-.31.69-.74.95-1.08.46-.61,1.07-1.44,1.44-2.1.34-.6.74-1.42,1.01-2.05.22-.52.47-1.24.62-1.79.18-.68.39-1.59.48-2.28.06-.44.11-1.04.14-1.48.02-.25.01-.57.02-.85,0-.08,0-.17,0-.25Z"/>
              <path class="cls-27" d="M847.35,1086.89c-.09-7.76-5.6-17.07-12.29-20.8-3.29-1.83-6.26-1.98-8.41-.73l-9.49,5.51c-.54.33-1.23.79-1.74,1.16-.32.23-.72.58-1.02.84-.15.13-.96.85-1.9,2-.48.59-1.08,1.43-1.44,2.1-.33.6-.73,1.42-1.01,2.05-.15.33-.3.8-.42,1.14-.18.53-.35,1.24-.48,1.78-.08.34-.15.8-.2,1.14-.07.44-.11,1.04-.14,1.48-.02.33-.02.77-.02,1.09,0,.37.03.85.06,1.22.03.32.07.75.12,1.07.04.27.1.64.16.91.06.26.13.62.2.88.07.26.17.6.24.85.07.24.18.56.27.8.18.44.41,1.04.62,1.47.1.21.24.49.35.7.11.2.26.48.38.68.12.2.28.47.41.66.13.2.31.46.45.65.14.19.34.45.48.64.15.2.37.46.54.65.34.38.82.87,1.18,1.23.22.21.52.47.75.67.27.22.63.5.9.7.25.18.58.41.84.57.42.26,1,.59,1.43.82.3.16.7.35,1.02.48.32.13.74.31,1.06.42.64.2,1.51.45,2.17.61.71.17,1.69.26,2.42.33.63.05,1.47.06,2.1,0,.59-.06,1.39-.15,1.98-.24.39-.06.89-.2,1.27-.29.53-.12,1.21-.35,1.71-.56.74-.31,1.71-.78,2.42-1.16l9.49-5.51c2.23-1.29,3.58-4.08,3.54-8.02Z"/>
            </g>
            <path class="cls-31" d="M857.97,1053.12c-2.14-1.21-5.61-1.21-7.74,0l-28.1,15.92c-2.13,1.21-2.12,3.16.03,4.37s5.61,1.21,7.74,0l28.1-15.92c2.13-1.21,2.12-3.16-.03-4.37Z"/>
          </g>
          <g>
            <path class="cls-29" d="M908.85,1117.51c-.12-.51-.26-1.01-.42-1.52.16.51.3,1.01.42,1.52ZM905.78,1110.08c.28.47.54.95.79,1.43-.25-.48-.52-.96-.79-1.43ZM937.73,1100.32c-.02-.3-.07-.69-.11-.99-.09-.67-.28-1.55-.38-1.91-.07-.25-.15-.58-.24-.82-.08-.24-.18-.55-.27-.79-.08-.23-.2-.53-.3-.76-.09-.22-.22-.51-.32-.72-.11-.21-.24-.49-.35-.69-.11-.21-.26-.48-.38-.68-.24-.4-.59-.92-.85-1.3-.14-.2-.33-.46-.49-.64-.16-.2-.37-.46-.54-.65-.17-.19-.4-.43-.57-.62-.17-.19-.43-.42-.61-.6-.22-.21-.52-.47-.75-.67-.26-.22-.62-.5-.9-.7-.5-.36-1.2-.8-1.74-1.11-.4-.23-.94-.51-1.36-.68-.63-.26-1.48-.61-2.15-.79-.68-.18-1.59-.39-2.28-.5-.61-.1-1.44-.18-2.06-.18-.76,0-1.78.05-2.53.13-.6.07-1.4.23-1.98.38-.58.15-1.34.38-1.9.6-.59.24-1.32.6-1.96.92-.16.07-.31.15-.46.24l-23.51,13.66-9.49,5.51c-.54.33-1.23.79-1.74,1.16-.32.23-.72.58-1.02.84-.15.13-.96.85-1.9,2-.48.59-1.08,1.43-1.44,2.1-.33.6-.73,1.43-1.01,2.05-.15.33-.3.8-.42,1.14-.18.53-.35,1.24-.48,1.78-.08.34-.15.8-.2,1.14-.07.44-.11,1.04-.14,1.48-.02.33-.02.77-.02,1.09,0,.37.03.85.06,1.22.03.32.07.75.12,1.07.04.27.1.64.16.91.06.26.13.62.2.88.07.26.17.6.24.85.07.24.18.56.27.8.17.45.41,1.04.62,1.47.1.21.24.49.35.7.11.2.26.48.38.68.12.2.28.47.41.66.13.2.31.46.45.65.14.19.34.45.48.64.15.2.37.46.54.65.34.38.82.87,1.18,1.23.22.21.52.47.75.67.27.22.63.5.9.7.25.18.58.41.84.57.42.26,1,.59,1.43.82.3.16.7.35,1.02.48.32.13.74.31,1.06.42.64.2,1.51.45,2.17.61.71.17,1.69.26,2.42.33.63.05,1.47.06,2.1,0,.59-.06,1.39-.15,1.98-.25.39-.06.89-.2,1.27-.29.53-.12,1.21-.35,1.71-.56.74-.31,1.71-.78,2.42-1.16l9.49-5.51,23.51-13.66c.08-.04.15-.09.23-.14.5-.31,1.09-.69,1.52-1.02.62-.49,1.41-1.2,1.97-1.76.31-.31.69-.74.95-1.08.46-.61,1.07-1.44,1.44-2.1.34-.6.74-1.42,1.01-2.05.22-.52.47-1.24.62-1.79.18-.68.39-1.59.48-2.28.06-.44.11-1.04.14-1.48.02-.25.01-.57.02-.85,0-.08,0-.16,0-.25,0-.37-.03-.85-.06-1.22ZM898.4,1101.95c.41.27.81.57,1.21.88-.4-.31-.8-.61-1.21-.88ZM901.33,1104.36c.37.36.74.74,1.09,1.14-.36-.39-.72-.77-1.09-1.14ZM902.95,1106.1c.69.82,1.35,1.68,1.95,2.59-.61-.91-1.26-1.77-1.95-2.59Z"/>
            <g>
              <path class="cls-30" d="M932.68,1099.27c0-.37-.03-.85-.06-1.22-.02-.3-.07-.69-.11-.99-.09-.67-.28-1.55-.38-1.91-.07-.25-.15-.58-.24-.82-.08-.24-.18-.55-.27-.79-.08-.23-.2-.53-.3-.75-.09-.22-.22-.51-.32-.72-.11-.21-.24-.49-.35-.69-.11-.21-.26-.48-.38-.68-.24-.4-.59-.92-.85-1.3-.14-.2-.33-.46-.49-.64-.16-.2-.37-.46-.54-.65-.17-.19-.4-.43-.57-.62-.17-.19-.43-.42-.61-.6-.22-.21-.52-.47-.75-.67-.26-.22-.63-.5-.9-.7-.5-.36-1.2-.8-1.74-1.11-.4-.23-.94-.51-1.36-.68-.63-.27-1.48-.61-2.15-.79-.68-.18-1.59-.39-2.28-.5-.61-.1-1.44-.18-2.06-.18-.76,0-1.78.05-2.53.13-.6.07-1.4.23-1.98.38-.58.15-1.34.38-1.9.6-.59.24-1.32.6-1.96.92-.16.07-.31.15-.46.24l-23.51,13.66c2.15-1.25,5.12-1.11,8.41.73,6.69,3.73,12.2,13.04,12.29,20.8.05,3.94-1.31,6.72-3.54,8.02l23.51-13.66c.08-.04.15-.09.22-.14.5-.31,1.09-.69,1.52-1.02.62-.49,1.41-1.2,1.97-1.76.31-.31.69-.74.95-1.08.46-.61,1.07-1.44,1.44-2.1.34-.6.74-1.42,1.01-2.05.22-.52.47-1.24.62-1.79.18-.68.39-1.59.48-2.28.06-.44.11-1.04.14-1.48.02-.25.01-.57.02-.85,0-.08,0-.16,0-.25Z"/>
              <path class="cls-27" d="M904.34,1119.72c-.1-7.76-5.6-17.07-12.29-20.8-3.29-1.83-6.26-1.98-8.41-.73l-9.49,5.51c-.54.33-1.23.79-1.74,1.16-.32.23-.72.58-1.02.84-.15.13-.96.85-1.9,2-.48.59-1.08,1.43-1.44,2.1-.33.6-.73,1.42-1.01,2.05-.15.33-.3.8-.42,1.14-.18.53-.35,1.24-.48,1.78-.08.34-.15.8-.2,1.14-.07.44-.11,1.04-.14,1.48-.02.33-.02.77-.02,1.09,0,.37.03.85.06,1.22.03.32.07.75.12,1.07.04.27.1.64.16.91.06.26.13.62.2.88.07.26.17.6.24.85.07.24.18.56.27.8.18.45.41,1.04.62,1.47.1.21.24.49.35.7.11.2.26.48.38.68.12.2.28.47.41.66.13.2.31.46.45.65.14.19.34.45.48.64.15.2.37.46.54.65.34.38.82.87,1.18,1.23.22.21.52.47.75.67.27.22.63.5.9.7.25.18.58.41.84.57.42.26,1,.59,1.43.82.3.16.7.35,1.02.48.32.13.74.31,1.06.42.64.2,1.51.45,2.17.61.71.17,1.69.26,2.42.33.63.05,1.47.06,2.1,0,.6-.06,1.39-.15,1.98-.24.39-.06.89-.2,1.27-.29.53-.12,1.21-.35,1.71-.56.74-.31,1.71-.78,2.42-1.16l9.49-5.51c2.23-1.29,3.58-4.08,3.54-8.02Z"/>
            </g>
            <path class="cls-19" d="M914.95,1085.94c-2.14-1.21-5.61-1.21-7.74,0l-28.1,15.92c-2.13,1.21-2.12,3.16.03,4.37,2.14,1.21,5.61,1.21,7.74,0l28.1-15.92c2.13-1.21,2.12-3.16-.03-4.37Z"/>
          </g>
          <g>
            <path class="cls-29" d="M965.84,1150.33c-.12-.51-.26-1.01-.42-1.52.16.51.3,1.01.42,1.52ZM962.76,1142.9c.28.47.54.95.79,1.43-.25-.48-.52-.96-.79-1.43ZM994.72,1133.15c-.02-.3-.07-.69-.11-.99-.09-.67-.28-1.55-.38-1.91-.07-.25-.15-.58-.24-.82-.08-.24-.18-.55-.27-.79-.08-.23-.2-.53-.3-.76-.09-.22-.22-.51-.32-.72-.11-.21-.24-.49-.35-.69-.11-.21-.26-.48-.38-.68-.24-.4-.59-.92-.85-1.3-.14-.2-.33-.46-.49-.64-.16-.2-.37-.46-.54-.65-.17-.19-.4-.43-.57-.62-.17-.19-.43-.42-.61-.6-.22-.21-.52-.47-.75-.67-.26-.22-.62-.5-.9-.7-.5-.37-1.2-.8-1.74-1.11-.4-.23-.94-.51-1.36-.68-.63-.26-1.48-.61-2.15-.79-.68-.18-1.59-.39-2.28-.5-.61-.1-1.44-.18-2.06-.18-.76,0-1.78.05-2.53.13-.6.07-1.4.23-1.98.38-.58.15-1.34.38-1.9.6-.59.24-1.32.6-1.96.92-.16.07-.31.15-.46.24l-23.51,13.66-9.49,5.51c-.54.33-1.23.79-1.74,1.16-.32.23-.72.58-1.02.84-.15.13-.96.85-1.9,2-.48.59-1.08,1.43-1.44,2.1-.33.6-.73,1.42-1.01,2.05-.15.33-.3.8-.42,1.14-.18.53-.35,1.24-.48,1.78-.08.34-.15.8-.2,1.14-.07.44-.11,1.04-.14,1.48-.02.33-.02.77-.02,1.09,0,.37.03.85.06,1.22.03.32.07.75.12,1.07.04.27.1.64.16.91.06.26.13.62.2.88.07.26.17.6.24.85.07.24.18.56.27.8.17.45.41,1.04.62,1.47.1.21.24.49.35.7.11.2.26.48.38.68.12.2.28.47.41.66.13.2.31.46.45.65.14.19.34.45.48.64.15.2.37.46.54.65.34.38.82.87,1.18,1.23.22.21.52.47.75.67.27.22.63.5.9.7.25.18.58.41.84.57.42.26,1,.59,1.43.82.3.16.7.35,1.02.48.32.13.74.31,1.06.42.64.2,1.51.45,2.17.61.71.17,1.69.26,2.42.33.63.05,1.47.06,2.1,0,.59-.06,1.39-.15,1.98-.24.39-.06.89-.2,1.27-.29.53-.12,1.21-.35,1.71-.56.74-.31,1.71-.78,2.42-1.16l9.49-5.51,23.51-13.66c.08-.04.15-.09.22-.14.5-.31,1.09-.69,1.52-1.02.62-.49,1.41-1.2,1.97-1.76.31-.31.69-.74.95-1.08.46-.61,1.07-1.44,1.44-2.1.34-.6.74-1.42,1.01-2.05.22-.52.47-1.24.62-1.79.18-.68.39-1.59.48-2.28.06-.44.11-1.04.14-1.48.02-.25.01-.57.02-.85,0-.08,0-.16,0-.25,0-.37-.03-.85-.06-1.22ZM955.38,1134.77c.41.28.81.57,1.21.88-.4-.31-.8-.61-1.21-.88ZM958.32,1137.18c.37.36.74.74,1.09,1.14-.36-.39-.72-.77-1.09-1.14ZM959.94,1138.92c.69.82,1.35,1.68,1.95,2.59-.61-.91-1.26-1.77-1.95-2.59Z"/>
            <g>
              <path class="cls-30" d="M989.67,1132.09c0-.37-.03-.85-.06-1.22-.02-.3-.07-.69-.11-.99-.09-.67-.28-1.55-.38-1.91-.07-.25-.15-.58-.23-.82-.08-.24-.18-.55-.27-.79-.08-.23-.2-.53-.3-.76-.09-.22-.22-.51-.32-.72-.1-.21-.24-.49-.35-.69-.11-.21-.26-.48-.38-.68-.24-.4-.59-.92-.85-1.3-.14-.2-.33-.46-.49-.64-.16-.2-.37-.46-.54-.65-.17-.19-.4-.43-.57-.62-.17-.19-.43-.42-.61-.6-.22-.21-.52-.47-.75-.67-.26-.22-.63-.5-.9-.7-.5-.36-1.2-.8-1.74-1.11-.4-.23-.94-.51-1.36-.68-.63-.27-1.48-.61-2.15-.79-.68-.18-1.59-.39-2.28-.5-.61-.1-1.44-.18-2.06-.18-.76,0-1.78.05-2.53.13-.6.07-1.4.23-1.98.38-.58.15-1.34.38-1.9.61-.59.24-1.32.6-1.96.92-.16.07-.31.15-.46.24l-23.51,13.66c2.15-1.25,5.12-1.11,8.41.73,6.69,3.73,12.2,13.04,12.29,20.8.05,3.94-1.31,6.72-3.54,8.02l23.51-13.66c.08-.04.15-.09.22-.14.5-.31,1.09-.69,1.52-1.02.62-.49,1.41-1.2,1.97-1.76.31-.31.69-.74.95-1.08.46-.61,1.07-1.44,1.44-2.1.34-.6.74-1.42,1.01-2.05.22-.52.47-1.24.62-1.79.18-.68.39-1.59.48-2.28.06-.44.11-1.04.14-1.48.02-.25.01-.57.02-.85,0-.08,0-.17,0-.25Z"/>
              <path class="cls-27" d="M961.32,1152.54c-.09-7.76-5.6-17.07-12.29-20.8-3.29-1.83-6.26-1.98-8.41-.73l-9.49,5.51c-.54.33-1.23.79-1.74,1.16-.32.23-.72.58-1.02.84-.15.13-.96.85-1.9,2-.48.59-1.08,1.43-1.44,2.1-.33.6-.73,1.42-1.01,2.05-.15.33-.3.8-.42,1.14-.18.53-.35,1.24-.48,1.78-.08.34-.15.8-.2,1.14-.07.44-.11,1.04-.14,1.48-.02.33-.02.77-.02,1.09,0,.37.03.85.06,1.22.03.32.07.75.12,1.07.04.27.1.64.16.91.06.26.13.62.2.88.07.26.17.6.24.85.07.24.18.56.27.8.18.45.41,1.04.62,1.47.1.21.24.49.35.7.11.2.26.48.38.68.12.2.28.47.41.66.13.2.31.46.45.65.14.19.34.45.48.64.15.2.37.46.54.65.34.38.82.87,1.18,1.23.22.21.52.47.75.67.27.22.63.5.9.7.25.18.58.41.84.57.42.26,1,.59,1.43.82.3.16.7.35,1.02.48.32.13.74.31,1.06.42.64.2,1.51.45,2.17.61.71.17,1.69.26,2.42.33.63.05,1.47.06,2.1,0,.59-.06,1.39-.15,1.98-.24.39-.06.89-.2,1.27-.29.53-.12,1.21-.35,1.71-.56.74-.31,1.71-.78,2.42-1.16l9.49-5.51c2.23-1.29,3.58-4.08,3.54-8.02Z"/>
            </g>
            <path class="cls-33" d="M971.93,1118.77c-2.14-1.21-5.61-1.21-7.74,0l-28.1,15.92c-2.13,1.21-2.12,3.16.03,4.37,2.14,1.21,5.61,1.21,7.74,0l28.1-15.92c2.13-1.21,2.12-3.16-.03-4.37Z"/>
          </g>
          <g>
            <path class="cls-29" d="M1022.82,1183.15c-.12-.51-.26-1.01-.42-1.52.16.51.3,1.01.42,1.52ZM1019.75,1175.72c.28.47.54.95.79,1.43-.25-.48-.52-.96-.79-1.43ZM1051.7,1165.97c-.02-.3-.07-.69-.11-.99-.09-.67-.28-1.55-.38-1.91-.07-.25-.15-.58-.24-.82-.08-.24-.18-.55-.27-.79-.08-.23-.2-.53-.3-.76-.09-.22-.22-.51-.32-.72-.11-.21-.24-.49-.35-.69-.11-.21-.26-.48-.38-.68-.24-.4-.59-.92-.85-1.3-.14-.2-.33-.46-.49-.64-.16-.2-.37-.46-.54-.65-.17-.19-.4-.43-.57-.62-.17-.19-.43-.42-.61-.6-.22-.21-.52-.47-.75-.67-.26-.22-.62-.5-.9-.7-.5-.37-1.2-.8-1.74-1.11-.4-.23-.94-.51-1.36-.68-.63-.27-1.48-.61-2.15-.79-.68-.18-1.59-.39-2.28-.5-.61-.1-1.44-.18-2.06-.18-.76,0-1.78.05-2.53.13-.6.07-1.4.23-1.98.38-.58.15-1.34.38-1.9.6-.59.24-1.32.6-1.96.92-.16.07-.31.15-.46.24l-23.51,13.66-9.49,5.51c-.54.33-1.23.79-1.74,1.16-.32.23-.72.58-1.02.84-.15.13-.96.85-1.9,2-.48.59-1.08,1.43-1.44,2.1-.33.6-.73,1.42-1.01,2.05-.15.33-.3.8-.42,1.14-.18.53-.35,1.24-.48,1.78-.08.34-.15.8-.2,1.14-.07.44-.11,1.04-.14,1.48-.02.33-.02.77-.02,1.09,0,.37.03.85.06,1.22.03.32.07.75.12,1.07.04.27.1.64.16.91.06.26.13.62.2.88.07.26.17.6.24.85.07.24.18.56.27.8.17.45.41,1.04.62,1.47.1.21.24.49.35.7.11.2.26.48.38.68.12.2.28.47.41.66.13.2.31.46.45.65.14.19.34.45.48.64.15.2.37.46.54.65.34.38.82.87,1.18,1.23.22.21.52.47.75.67.27.22.63.5.9.7.25.18.58.41.84.57.42.26,1,.59,1.43.82.3.16.7.35,1.02.48.32.13.74.31,1.06.42.64.21,1.51.45,2.17.61.71.17,1.69.26,2.42.33.63.05,1.47.06,2.1,0,.59-.06,1.39-.15,1.98-.25.39-.06.89-.2,1.27-.29.53-.12,1.21-.35,1.71-.56.74-.31,1.71-.78,2.42-1.16l9.49-5.51,23.51-13.66c.08-.04.15-.09.23-.14.5-.31,1.09-.69,1.52-1.02.62-.49,1.41-1.2,1.97-1.76.31-.31.69-.74.95-1.08.46-.61,1.07-1.44,1.44-2.1.34-.6.74-1.42,1.01-2.05.22-.52.47-1.24.62-1.79.18-.68.39-1.59.48-2.28.06-.44.11-1.04.14-1.48.02-.25.02-.57.02-.85,0-.08,0-.16,0-.25,0-.37-.03-.85-.06-1.22ZM1012.37,1167.6c.41.28.81.57,1.21.88-.4-.31-.8-.61-1.21-.88ZM1015.3,1170.01c.37.36.74.74,1.09,1.14-.36-.39-.72-.77-1.09-1.14ZM1016.92,1171.75c.69.82,1.35,1.68,1.95,2.59-.61-.91-1.26-1.77-1.95-2.59Z"/>
            <g>
              <path class="cls-30" d="M1046.65,1164.92c0-.37-.03-.85-.06-1.22-.02-.3-.07-.69-.11-.99-.09-.67-.28-1.55-.38-1.91-.07-.25-.15-.58-.23-.82-.08-.24-.18-.55-.27-.79-.08-.23-.2-.53-.3-.76-.09-.22-.22-.51-.32-.72-.1-.21-.24-.49-.35-.69-.11-.21-.26-.48-.38-.68-.24-.4-.59-.92-.85-1.3-.14-.2-.33-.46-.49-.64-.16-.2-.37-.46-.54-.65-.17-.19-.4-.43-.57-.62-.17-.19-.43-.42-.61-.6-.22-.21-.52-.47-.75-.67-.26-.22-.63-.5-.9-.7-.5-.36-1.2-.8-1.74-1.11-.4-.23-.94-.51-1.36-.68-.63-.27-1.48-.61-2.15-.79-.68-.18-1.59-.39-2.28-.5-.61-.1-1.44-.18-2.06-.18-.76,0-1.78.05-2.53.13-.6.07-1.4.23-1.98.38-.58.15-1.34.38-1.9.6-.59.24-1.32.6-1.96.92-.16.07-.31.15-.46.24l-23.51,13.66c2.15-1.25,5.12-1.11,8.41.73,6.69,3.73,12.2,13.04,12.29,20.8.05,3.94-1.31,6.72-3.54,8.02l23.51-13.66c.08-.04.15-.09.23-.14.5-.31,1.09-.69,1.52-1.02.62-.49,1.41-1.2,1.97-1.76.31-.31.69-.74.95-1.08.46-.61,1.07-1.44,1.44-2.1.34-.6.74-1.42,1.01-2.05.22-.52.47-1.24.62-1.79.18-.68.39-1.59.48-2.28.06-.44.11-1.04.14-1.48.02-.25.02-.57.02-.85,0-.08,0-.16,0-.25Z"/>
              <path class="cls-27" d="M1018.31,1185.36c-.1-7.76-5.6-17.07-12.29-20.8-3.29-1.83-6.26-1.98-8.41-.73l-9.49,5.51c-.54.33-1.23.79-1.74,1.16-.32.23-.72.58-1.02.84-.15.13-.96.85-1.9,2-.48.59-1.08,1.43-1.44,2.1-.33.6-.73,1.42-1.01,2.05-.15.33-.3.8-.42,1.14-.18.53-.35,1.24-.48,1.78-.08.34-.15.8-.2,1.14-.07.44-.11,1.04-.14,1.48-.02.33-.02.77-.02,1.09,0,.37.03.85.06,1.22.03.32.07.75.12,1.07.04.27.1.64.16.91.06.26.13.62.2.88.07.26.17.6.24.85.07.24.18.56.27.8.17.44.41,1.04.62,1.47.1.21.24.49.35.7.11.2.26.48.38.68.12.2.28.47.41.66.13.2.31.46.45.65.14.19.34.45.48.64.15.2.37.46.54.65.34.38.82.87,1.18,1.22.22.21.52.47.75.67.27.22.63.5.9.7.25.18.58.41.84.57.42.26,1,.59,1.43.82.3.16.7.35,1.02.48.32.13.74.31,1.06.42.64.2,1.51.45,2.17.61.71.17,1.69.26,2.42.33.63.05,1.47.06,2.1,0,.6-.06,1.39-.15,1.98-.24.39-.06.89-.2,1.27-.29.53-.12,1.21-.35,1.71-.56.74-.31,1.71-.78,2.42-1.16l9.49-5.51c2.23-1.29,3.58-4.08,3.54-8.02Z"/>
            </g>
            <path class="cls-22" d="M1028.92,1151.59c-2.14-1.21-5.61-1.21-7.74,0l-28.1,15.92c-2.13,1.21-2.11,3.16.03,4.37s5.61,1.21,7.74,0l28.1-15.92c2.13-1.21,2.12-3.16-.03-4.37Z"/>
          </g>
        </g>
        <g>
          <g>
            <path class="cls-29" d="M692.02,1110.31c-.12-.51-.26-1.01-.42-1.52.16.51.3,1.01.42,1.52ZM688.95,1102.88c.28.47.54.95.79,1.43-.25-.48-.52-.96-.79-1.43ZM720.9,1093.12c-.02-.3-.07-.69-.11-.99-.09-.67-.28-1.55-.38-1.91-.07-.25-.15-.58-.24-.82-.08-.24-.18-.55-.27-.79-.08-.23-.2-.53-.3-.76-.09-.22-.22-.51-.32-.72-.11-.21-.24-.49-.35-.69-.11-.21-.26-.48-.38-.68-.24-.4-.59-.92-.85-1.3-.14-.2-.33-.46-.49-.64-.16-.2-.37-.46-.54-.65-.17-.19-.4-.43-.57-.62-.17-.19-.43-.42-.61-.6-.22-.21-.52-.47-.75-.67-.26-.22-.62-.5-.9-.7-.5-.37-1.2-.8-1.74-1.11-.4-.23-.94-.51-1.36-.68-.63-.27-1.48-.61-2.15-.79-.68-.18-1.59-.39-2.28-.5-.61-.1-1.44-.18-2.06-.18-.76,0-1.78.05-2.53.13-.6.07-1.4.23-1.98.38-.58.15-1.34.38-1.9.6-.59.24-1.32.6-1.96.92-.16.07-.31.15-.46.24l-23.51,13.66-9.49,5.51c-.54.33-1.23.79-1.74,1.16-.32.23-.72.58-1.02.84-.15.13-.96.85-1.9,2-.48.59-1.08,1.43-1.44,2.1-.33.6-.73,1.42-1.01,2.05-.15.33-.3.8-.42,1.14-.18.53-.35,1.24-.48,1.78-.08.34-.15.8-.2,1.14-.07.44-.11,1.04-.14,1.48-.02.33-.02.77-.02,1.09,0,.37.03.85.06,1.22.03.32.07.75.12,1.07.04.27.1.64.16.91.06.26.13.62.2.88.07.26.17.6.24.85.07.24.18.56.27.8.17.45.41,1.04.62,1.47.1.21.24.49.35.7.11.2.26.48.38.68.12.2.28.47.41.66.13.2.31.46.45.65.14.19.34.45.48.64.15.2.37.46.54.65.34.38.82.87,1.18,1.23.22.21.52.47.75.67.27.22.63.5.9.7.25.18.58.41.84.57.42.26,1,.59,1.43.82.3.16.7.35,1.02.48.32.13.74.31,1.06.42.64.2,1.51.45,2.17.61.71.17,1.69.26,2.42.33.63.05,1.47.06,2.1,0,.59-.06,1.39-.15,1.98-.25.39-.06.89-.2,1.27-.29.53-.12,1.21-.35,1.71-.56.74-.31,1.71-.78,2.42-1.16l9.49-5.51,23.51-13.66c.08-.04.15-.09.23-.14.5-.31,1.09-.69,1.52-1.02.62-.49,1.41-1.2,1.97-1.76.31-.31.69-.74.95-1.08.46-.61,1.07-1.44,1.44-2.1.34-.6.74-1.42,1.01-2.05.22-.52.47-1.24.62-1.79.18-.68.39-1.59.48-2.28.06-.44.11-1.04.14-1.48.02-.25.02-.57.02-.85,0-.08,0-.16,0-.25,0-.37-.03-.85-.06-1.22ZM681.57,1094.75c.41.28.81.57,1.21.88-.4-.31-.8-.61-1.21-.88ZM684.51,1097.16c.37.36.74.74,1.09,1.14-.36-.39-.72-.77-1.09-1.14ZM686.12,1098.9c.69.82,1.35,1.68,1.95,2.59-.61-.91-1.26-1.77-1.95-2.59Z"/>
            <g>
              <path class="cls-30" d="M715.85,1092.07c0-.37-.03-.85-.06-1.22-.02-.3-.07-.69-.11-.99-.09-.67-.28-1.55-.38-1.91-.07-.25-.15-.58-.23-.82-.08-.24-.18-.55-.27-.79-.08-.23-.2-.53-.3-.76-.09-.22-.22-.51-.32-.72-.1-.21-.24-.49-.35-.69-.11-.21-.26-.48-.38-.68-.24-.4-.59-.92-.85-1.3-.14-.2-.33-.46-.49-.64-.16-.2-.37-.46-.54-.65-.17-.19-.4-.43-.57-.62-.17-.19-.43-.42-.61-.6-.22-.21-.52-.47-.75-.67-.26-.22-.63-.5-.9-.7-.5-.36-1.2-.8-1.74-1.11-.4-.23-.94-.51-1.36-.68-.63-.27-1.48-.61-2.15-.79-.68-.18-1.59-.39-2.28-.5-.61-.1-1.44-.18-2.06-.18-.76,0-1.78.05-2.53.13-.6.07-1.4.23-1.98.38-.58.15-1.34.38-1.9.6-.59.24-1.32.6-1.96.92-.16.07-.31.15-.46.24l-23.51,13.66c2.15-1.25,5.12-1.11,8.41.73,6.69,3.73,12.2,13.04,12.29,20.8.05,3.94-1.31,6.73-3.54,8.02l23.51-13.66c.08-.04.15-.09.22-.14.5-.31,1.09-.69,1.52-1.02.62-.49,1.41-1.2,1.97-1.76.31-.31.69-.74.95-1.08.46-.61,1.07-1.44,1.44-2.1.34-.6.74-1.42,1.01-2.05.22-.52.47-1.24.62-1.79.18-.68.39-1.59.48-2.28.06-.44.11-1.04.14-1.48.02-.25.02-.57.02-.85,0-.08,0-.17,0-.25Z"/>
              <path class="cls-27" d="M687.51,1112.52c-.09-7.76-5.6-17.07-12.29-20.8-3.29-1.83-6.26-1.98-8.41-.73l-9.49,5.51c-.54.33-1.23.79-1.74,1.16-.32.23-.72.58-1.02.84-.15.13-.96.85-1.9,2-.48.59-1.08,1.43-1.44,2.1-.33.6-.73,1.42-1.01,2.05-.15.33-.3.8-.42,1.14-.18.53-.35,1.24-.48,1.78-.08.34-.15.8-.2,1.14-.07.44-.11,1.04-.14,1.48-.02.33-.02.77-.02,1.09,0,.37.03.85.06,1.22.03.32.07.75.12,1.07.04.27.1.64.16.91.06.26.13.62.2.88.07.26.17.6.24.85.07.24.18.56.27.8.17.44.41,1.04.62,1.47.1.21.24.49.35.7.11.2.26.48.38.68.12.2.28.47.41.66.13.2.31.46.45.65.14.19.34.45.48.64.15.2.37.46.54.65.34.38.82.87,1.18,1.23.22.21.52.47.75.67.27.22.63.5.9.7.25.18.58.41.84.57.42.26,1,.59,1.43.82.3.16.7.35,1.02.48.32.13.74.31,1.06.42.64.2,1.51.45,2.17.61.71.17,1.69.26,2.42.33.63.05,1.47.06,2.1,0,.59-.06,1.39-.15,1.98-.24.39-.06.89-.2,1.27-.29.53-.12,1.21-.35,1.71-.56.74-.31,1.71-.78,2.42-1.16l9.49-5.51c2.23-1.29,3.58-4.08,3.54-8.02Z"/>
            </g>
            <path class="cls-10" d="M698.12,1078.74c-2.14-1.21-5.61-1.21-7.74,0l-28.1,15.92c-2.13,1.21-2.11,3.16.03,4.37,2.14,1.21,5.61,1.21,7.74,0l28.1-15.92c2.13-1.21,2.12-3.16-.03-4.37Z"/>
          </g>
          <g>
            <path class="cls-29" d="M749.01,1143.13c-.12-.51-.26-1.01-.42-1.52.16.51.3,1.01.42,1.52ZM745.93,1135.7c.28.47.54.95.79,1.43-.25-.48-.52-.96-.79-1.43ZM777.89,1125.95c-.02-.3-.07-.69-.11-.99-.09-.67-.28-1.55-.38-1.91-.07-.25-.15-.58-.23-.82-.08-.24-.18-.55-.27-.79-.08-.23-.2-.53-.3-.76-.09-.22-.22-.51-.32-.72-.11-.21-.24-.49-.35-.69-.11-.21-.26-.48-.38-.68-.24-.4-.59-.92-.85-1.3-.14-.2-.33-.46-.49-.64-.16-.2-.37-.46-.54-.65-.17-.19-.4-.43-.57-.62-.17-.19-.43-.42-.61-.6-.22-.21-.52-.47-.75-.67-.26-.22-.62-.5-.9-.7-.5-.36-1.2-.8-1.74-1.11-.4-.23-.94-.51-1.36-.68-.63-.26-1.48-.61-2.15-.79-.68-.18-1.59-.39-2.28-.5-.61-.1-1.44-.18-2.06-.18-.76,0-1.78.05-2.53.13-.6.07-1.4.23-1.98.38-.58.15-1.34.38-1.9.6-.59.24-1.32.6-1.96.92-.16.07-.31.15-.46.24l-23.51,13.66-9.49,5.51c-.54.33-1.23.79-1.74,1.16-.32.23-.72.58-1.02.84-.15.13-.96.85-1.9,2-.48.59-1.08,1.43-1.44,2.1-.33.6-.73,1.43-1.01,2.05-.15.33-.3.8-.42,1.14-.18.53-.35,1.24-.48,1.78-.08.34-.15.8-.2,1.14-.07.44-.11,1.04-.14,1.48-.02.33-.02.77-.02,1.09,0,.37.03.85.06,1.22.03.32.07.75.12,1.07.04.27.1.64.16.91.06.26.13.62.2.88.07.26.17.6.24.85.07.24.18.56.27.8.17.45.41,1.04.62,1.47.1.21.24.49.35.7.11.2.26.48.38.68.12.2.28.47.41.66.13.2.31.46.45.65.14.19.34.45.48.64.15.2.37.46.54.65.34.38.82.87,1.18,1.23.22.21.52.47.75.67.27.22.63.5.9.7.25.18.58.41.84.57.42.26,1,.59,1.43.82.3.16.7.35,1.02.48.32.13.74.31,1.06.42.64.2,1.51.45,2.17.61.71.17,1.69.26,2.42.33.63.05,1.47.06,2.1,0,.6-.06,1.39-.15,1.98-.25.39-.06.89-.2,1.27-.29.53-.12,1.21-.35,1.71-.56.74-.31,1.71-.78,2.42-1.16l9.49-5.51,23.51-13.66c.08-.04.15-.09.23-.14.5-.31,1.09-.69,1.52-1.02.62-.49,1.41-1.2,1.97-1.76.31-.31.69-.74.95-1.08.46-.61,1.07-1.44,1.44-2.1.34-.6.74-1.42,1.01-2.05.22-.52.47-1.24.62-1.79.18-.68.39-1.59.48-2.28.06-.44.11-1.04.14-1.48.02-.25.01-.57.02-.85,0-.08,0-.17,0-.25,0-.37-.03-.85-.06-1.22ZM738.55,1127.57c.41.28.81.57,1.21.88-.4-.31-.8-.61-1.21-.88ZM741.49,1129.99c.37.36.74.74,1.09,1.14-.36-.39-.72-.77-1.09-1.14ZM743.11,1131.73c.69.82,1.35,1.68,1.95,2.59-.61-.91-1.26-1.77-1.95-2.59Z"/>
            <g>
              <path class="cls-30" d="M772.84,1124.9c0-.37-.03-.85-.06-1.22-.02-.3-.07-.69-.11-.99-.09-.67-.28-1.55-.38-1.91-.07-.25-.15-.58-.23-.82-.08-.24-.18-.55-.27-.79-.08-.23-.2-.53-.3-.76-.09-.22-.22-.51-.32-.72-.1-.21-.24-.49-.35-.69-.11-.21-.26-.48-.38-.68-.24-.4-.59-.92-.85-1.3-.14-.2-.33-.46-.49-.64-.16-.2-.37-.46-.54-.65-.17-.19-.4-.43-.57-.62-.17-.19-.43-.42-.61-.6-.22-.21-.52-.47-.75-.67-.26-.22-.63-.5-.9-.7-.5-.36-1.2-.8-1.74-1.11-.4-.23-.94-.51-1.36-.68-.63-.27-1.48-.61-2.15-.79-.68-.18-1.59-.39-2.28-.5-.61-.1-1.44-.18-2.06-.18-.76,0-1.78.05-2.53.13-.6.07-1.4.23-1.98.38-.58.15-1.34.38-1.9.6-.59.24-1.32.6-1.96.92-.16.07-.31.15-.46.24l-23.51,13.66c2.15-1.25,5.12-1.11,8.41.73,6.69,3.73,12.2,13.04,12.29,20.8.05,3.94-1.31,6.72-3.54,8.02l23.51-13.66c.08-.04.15-.09.23-.14.5-.31,1.09-.69,1.52-1.02.62-.49,1.41-1.2,1.97-1.76.31-.31.69-.74.95-1.08.46-.61,1.07-1.44,1.44-2.1.34-.6.74-1.42,1.01-2.05.22-.52.47-1.24.62-1.79.18-.68.39-1.59.48-2.28.06-.44.11-1.04.14-1.48.02-.25.01-.57.02-.85,0-.08,0-.17,0-.25Z"/>
              <path class="cls-27" d="M744.49,1145.34c-.1-7.76-5.6-17.07-12.29-20.8-3.29-1.83-6.26-1.98-8.41-.73l-9.49,5.51c-.54.33-1.23.79-1.74,1.16-.32.23-.72.58-1.02.84-.15.13-.96.85-1.9,2-.48.59-1.08,1.43-1.44,2.1-.33.6-.73,1.42-1.01,2.05-.15.33-.3.8-.42,1.14-.18.53-.35,1.24-.48,1.78-.08.34-.15.8-.2,1.14-.07.44-.11,1.04-.14,1.48-.02.33-.02.77-.02,1.09,0,.37.03.85.06,1.22.03.32.07.75.12,1.07.04.27.1.64.16.91.06.26.13.62.2.88.07.26.17.6.24.85.07.24.18.56.27.8.17.45.41,1.04.62,1.47.1.21.24.49.35.7.11.2.26.48.38.68.12.2.28.47.41.66.13.2.31.46.45.65.14.19.34.45.48.64.15.2.37.46.54.65.34.38.82.87,1.18,1.23.22.21.52.47.75.67.27.22.63.5.9.7.25.18.58.41.84.57.42.26,1,.59,1.43.82.3.16.7.35,1.02.48.32.13.74.31,1.06.42.64.2,1.51.45,2.17.61.71.17,1.69.26,2.42.33.63.05,1.47.06,2.1,0,.6-.06,1.39-.15,1.98-.24.39-.06.89-.2,1.27-.29.53-.12,1.21-.35,1.71-.56.74-.31,1.71-.78,2.42-1.16l9.49-5.51c2.23-1.29,3.58-4.08,3.54-8.02Z"/>
            </g>
            <path class="cls-31" d="M755.1,1111.57c-2.14-1.21-5.61-1.21-7.74,0l-28.1,15.92c-2.13,1.21-2.12,3.16.03,4.37,2.14,1.21,5.61,1.21,7.74,0l28.1-15.92c2.13-1.21,2.12-3.16-.03-4.37Z"/>
          </g>
          <g>
            <path class="cls-29" d="M805.99,1175.95c-.12-.51-.26-1.01-.42-1.52.16.51.3,1.01.42,1.52ZM802.92,1168.52c.28.47.54.95.79,1.43-.25-.48-.52-.96-.79-1.43ZM834.87,1158.77c-.02-.3-.07-.69-.11-.99-.09-.67-.28-1.55-.38-1.91-.07-.25-.15-.58-.23-.82-.08-.24-.18-.55-.27-.79-.08-.23-.2-.53-.3-.76-.09-.22-.22-.51-.32-.72-.11-.21-.24-.49-.35-.69-.11-.21-.26-.48-.38-.68-.24-.4-.59-.92-.85-1.3-.14-.2-.33-.46-.49-.64-.16-.2-.37-.46-.54-.65-.17-.19-.4-.43-.57-.62-.17-.19-.43-.42-.61-.6-.22-.21-.52-.47-.75-.67-.26-.22-.62-.5-.9-.7-.5-.37-1.2-.8-1.74-1.11-.4-.23-.94-.51-1.36-.68-.63-.27-1.48-.61-2.15-.79-.68-.18-1.59-.39-2.28-.5-.61-.1-1.44-.18-2.06-.18-.76,0-1.78.05-2.53.13-.6.07-1.4.23-1.98.38-.58.15-1.34.38-1.9.6-.59.24-1.32.6-1.96.92-.16.07-.31.15-.46.24l-23.51,13.66-9.49,5.51c-.54.33-1.23.79-1.74,1.16-.32.23-.72.58-1.02.84-.15.13-.96.85-1.9,2-.48.59-1.08,1.43-1.44,2.1-.33.6-.73,1.42-1.01,2.05-.15.33-.3.8-.42,1.14-.18.53-.35,1.24-.48,1.78-.08.34-.15.8-.2,1.14-.07.44-.11,1.04-.14,1.48-.02.33-.02.77-.02,1.09,0,.37.03.85.06,1.22.03.32.07.75.12,1.07.04.27.1.64.16.91.06.26.13.62.2.88.07.26.17.6.24.85.07.24.18.56.27.8.17.45.41,1.04.62,1.47.1.21.24.49.35.7.11.2.26.48.38.68.12.2.28.47.41.66.13.2.31.46.45.65.14.19.34.45.48.64.15.2.37.46.54.65.34.38.82.87,1.18,1.23.22.21.52.47.75.67.27.22.63.5.9.7.25.18.58.41.84.57.42.26,1,.59,1.43.82.3.16.7.35,1.02.48.32.13.74.31,1.06.42.64.2,1.51.45,2.17.61.71.17,1.69.26,2.42.33.63.05,1.47.06,2.1,0,.59-.06,1.39-.15,1.98-.25.39-.06.89-.2,1.27-.29.53-.12,1.21-.35,1.71-.56.74-.31,1.71-.78,2.42-1.16l9.49-5.51,23.51-13.66c.08-.04.15-.09.23-.14.5-.31,1.09-.69,1.52-1.02.62-.49,1.41-1.2,1.97-1.76.31-.31.69-.74.95-1.08.46-.61,1.07-1.44,1.44-2.1.34-.6.74-1.42,1.01-2.05.22-.52.47-1.24.62-1.79.18-.68.39-1.59.48-2.28.06-.44.11-1.04.14-1.48.02-.25.01-.57.02-.85,0-.08,0-.16,0-.25,0-.37-.03-.85-.06-1.22ZM795.54,1160.4c.41.27.81.57,1.21.88-.4-.31-.8-.61-1.21-.88ZM798.47,1162.81c.37.36.74.74,1.09,1.14-.36-.39-.72-.77-1.09-1.14ZM800.09,1164.55c.69.82,1.35,1.68,1.95,2.59-.61-.91-1.26-1.77-1.95-2.59Z"/>
            <g>
              <path class="cls-30" d="M829.82,1157.72c0-.37-.03-.85-.06-1.22-.02-.3-.07-.69-.11-.99-.09-.67-.28-1.55-.38-1.91-.07-.25-.15-.58-.24-.82-.08-.24-.18-.55-.27-.79-.08-.23-.2-.53-.3-.76-.09-.22-.22-.51-.32-.72-.1-.21-.24-.49-.35-.69-.11-.21-.26-.48-.38-.68-.24-.4-.59-.92-.85-1.3-.14-.2-.33-.46-.49-.64-.16-.2-.37-.46-.54-.65-.17-.19-.4-.43-.57-.62-.17-.19-.43-.42-.61-.6-.22-.21-.52-.47-.75-.67-.26-.22-.63-.5-.9-.7-.5-.36-1.2-.8-1.74-1.11-.4-.23-.94-.51-1.36-.68-.63-.27-1.48-.61-2.15-.79-.68-.18-1.59-.39-2.28-.5-.61-.1-1.44-.18-2.06-.18-.76,0-1.78.05-2.53.13-.6.07-1.4.23-1.98.38-.58.15-1.34.38-1.9.61-.59.24-1.32.6-1.96.92-.16.07-.31.15-.46.24l-23.51,13.66c2.15-1.25,5.12-1.11,8.41.73,6.69,3.73,12.2,13.04,12.29,20.8.05,3.94-1.31,6.72-3.54,8.02l23.51-13.66c.08-.04.15-.09.23-.14.5-.31,1.09-.69,1.52-1.02.62-.49,1.41-1.2,1.97-1.76.31-.31.69-.74.95-1.08.46-.61,1.07-1.44,1.44-2.1.34-.6.74-1.42,1.01-2.05.22-.52.47-1.24.62-1.79.18-.68.39-1.59.48-2.28.06-.44.11-1.04.14-1.48.02-.25.01-.57.02-.85,0-.08,0-.17,0-.25Z"/>
              <path class="cls-27" d="M801.48,1178.16c-.09-7.76-5.6-17.07-12.29-20.8-3.29-1.83-6.26-1.98-8.41-.73l-9.49,5.51c-.54.33-1.23.79-1.74,1.16-.32.23-.72.58-1.02.84-.15.13-.96.85-1.9,2-.48.59-1.08,1.43-1.44,2.1-.33.6-.73,1.42-1.01,2.05-.15.33-.3.8-.42,1.14-.18.53-.35,1.24-.48,1.78-.08.34-.15.8-.2,1.14-.07.44-.11,1.04-.14,1.48-.02.33-.02.77-.02,1.09,0,.37.03.85.06,1.22.03.32.07.75.12,1.07.04.27.1.64.16.91.06.26.13.62.2.88.07.26.17.6.24.85.07.24.18.56.27.8.17.45.41,1.04.62,1.47.1.21.24.49.35.7.11.2.26.48.38.68.12.2.28.47.41.66.13.2.31.46.45.65.14.19.34.45.48.64.15.2.37.46.54.65.34.38.82.87,1.18,1.23.22.21.52.47.75.67.27.22.63.5.9.7.25.18.58.41.84.57.42.26,1,.59,1.43.82.3.16.7.35,1.02.48.32.13.74.31,1.06.42.64.2,1.51.45,2.17.61.71.17,1.69.26,2.42.33.63.05,1.47.06,2.1,0,.6-.06,1.39-.15,1.98-.24.39-.06.89-.2,1.27-.29.53-.12,1.21-.35,1.71-.56.74-.31,1.71-.78,2.42-1.16l9.49-5.51c2.23-1.29,3.58-4.08,3.54-8.02Z"/>
            </g>
            <path class="cls-19" d="M812.09,1144.39c-2.14-1.21-5.61-1.21-7.74,0l-28.1,15.92c-2.13,1.21-2.11,3.16.03,4.37,2.14,1.21,5.61,1.21,7.74,0l28.1-15.92c2.13-1.21,2.12-3.16-.03-4.37Z"/>
          </g>
          <g>
            <path class="cls-29" d="M862.98,1208.78c-.12-.51-.26-1.01-.42-1.52.16.51.3,1.01.42,1.52ZM859.9,1201.35c.28.47.54.95.79,1.43-.25-.48-.52-.96-.79-1.43ZM891.86,1191.59c-.02-.3-.07-.69-.11-.99-.09-.67-.28-1.55-.38-1.91-.07-.25-.15-.58-.24-.82-.08-.24-.18-.55-.27-.79-.08-.23-.2-.53-.3-.76-.09-.22-.22-.51-.32-.72-.11-.21-.24-.49-.35-.69-.11-.21-.26-.48-.38-.68-.24-.4-.59-.92-.85-1.3-.14-.2-.33-.46-.49-.64-.16-.2-.37-.46-.54-.65-.17-.19-.4-.43-.57-.62-.17-.19-.43-.42-.61-.6-.22-.21-.52-.47-.75-.67-.26-.22-.62-.5-.9-.7-.5-.37-1.2-.8-1.74-1.11-.4-.23-.94-.51-1.36-.68-.63-.26-1.48-.61-2.15-.79-.68-.18-1.59-.39-2.28-.5-.61-.1-1.44-.18-2.06-.18-.76,0-1.78.05-2.53.13-.6.07-1.4.23-1.98.38-.58.15-1.34.38-1.9.61-.59.24-1.32.6-1.96.92-.16.07-.31.15-.46.24l-23.51,13.66-9.49,5.51c-.54.33-1.23.79-1.74,1.16-.32.23-.72.58-1.02.84-.15.13-.96.85-1.9,2-.48.59-1.08,1.43-1.44,2.1-.33.6-.73,1.43-1.01,2.05-.15.33-.3.8-.42,1.14-.18.53-.35,1.24-.48,1.78-.08.34-.15.8-.2,1.14-.07.44-.11,1.04-.14,1.48-.02.33-.02.77-.02,1.09,0,.37.03.85.06,1.22.03.32.07.75.12,1.07.04.27.1.64.16.91.06.26.13.62.2.88.07.26.17.6.24.85.07.24.18.56.27.8.17.45.41,1.04.62,1.47.1.21.24.49.35.7.11.2.26.48.38.68.12.2.28.47.41.66.13.2.31.46.45.65.14.19.34.45.48.64.15.2.37.46.54.65.34.38.82.87,1.18,1.23.22.21.52.47.75.67.27.22.63.5.9.7.25.18.58.41.84.57.42.26,1,.59,1.43.82.3.16.7.35,1.02.48.32.13.74.31,1.06.42.64.21,1.51.45,2.17.61.71.17,1.69.26,2.42.33.63.05,1.47.06,2.1,0,.6-.06,1.39-.15,1.98-.25.39-.06.89-.2,1.27-.29.53-.12,1.21-.35,1.71-.56.74-.31,1.71-.78,2.42-1.16l9.49-5.51,23.51-13.66c.08-.04.15-.09.23-.14.5-.31,1.09-.69,1.52-1.02.62-.49,1.41-1.2,1.97-1.76.31-.31.69-.74.95-1.08.46-.61,1.07-1.44,1.44-2.1.34-.6.74-1.42,1.01-2.05.22-.52.47-1.24.62-1.79.18-.68.39-1.59.48-2.28.06-.44.11-1.04.14-1.48.02-.25.01-.57.02-.85,0-.08,0-.16,0-.25,0-.37-.03-.85-.06-1.22ZM852.52,1193.22c.41.28.81.57,1.21.88-.4-.31-.8-.61-1.21-.88ZM855.46,1195.63c.37.36.74.74,1.09,1.14-.36-.39-.72-.77-1.09-1.14ZM857.08,1197.37c.69.82,1.35,1.68,1.95,2.59-.61-.91-1.26-1.77-1.95-2.59Z"/>
            <g>
              <path class="cls-30" d="M886.8,1190.54c0-.37-.03-.85-.06-1.22-.02-.3-.07-.69-.11-.99-.09-.67-.28-1.55-.38-1.91-.07-.25-.15-.58-.23-.82-.08-.24-.18-.55-.27-.79-.08-.23-.2-.53-.3-.76-.09-.22-.22-.51-.32-.72-.11-.21-.24-.49-.35-.69-.11-.21-.26-.48-.38-.68-.24-.4-.59-.92-.85-1.3-.14-.2-.33-.46-.49-.64-.16-.2-.37-.46-.54-.65-.17-.19-.4-.43-.57-.62-.17-.19-.43-.42-.61-.6-.22-.21-.52-.47-.75-.67-.26-.22-.63-.5-.9-.7-.5-.36-1.2-.8-1.74-1.11-.4-.23-.94-.51-1.36-.68-.63-.27-1.48-.61-2.15-.79-.68-.18-1.59-.39-2.28-.5-.61-.1-1.44-.18-2.06-.18-.76,0-1.78.05-2.53.13-.6.07-1.4.23-1.98.38-.58.15-1.34.38-1.9.6-.59.24-1.32.6-1.96.92-.16.07-.31.15-.46.24l-23.51,13.66c2.15-1.25,5.12-1.11,8.41.73,6.69,3.73,12.2,13.04,12.29,20.8.05,3.94-1.31,6.72-3.54,8.02l23.51-13.66c.08-.04.15-.09.23-.14.5-.31,1.09-.69,1.52-1.02.62-.49,1.41-1.2,1.97-1.76.31-.31.69-.74.95-1.08.46-.61,1.07-1.44,1.44-2.1.34-.6.74-1.42,1.01-2.05.22-.52.47-1.24.62-1.79.18-.68.39-1.59.48-2.28.06-.44.11-1.04.14-1.48.02-.25.01-.57.02-.85,0-.08,0-.16,0-.25Z"/>
              <path class="cls-27" d="M858.46,1210.99c-.1-7.76-5.6-17.07-12.29-20.8-3.29-1.83-6.26-1.98-8.41-.73l-9.49,5.51c-.54.33-1.23.79-1.74,1.16-.32.23-.72.58-1.02.84-.15.13-.96.85-1.9,2-.48.59-1.08,1.43-1.44,2.1-.33.6-.73,1.42-1.01,2.05-.15.33-.3.8-.42,1.14-.18.53-.35,1.24-.48,1.78-.08.34-.15.8-.2,1.14-.07.44-.11,1.04-.14,1.48-.02.33-.02.77-.02,1.09,0,.37.03.85.06,1.22.03.32.07.75.12,1.07.04.27.1.64.16.91.06.26.13.62.2.88.07.26.17.6.24.85.07.24.18.56.27.8.18.45.41,1.04.62,1.47.1.21.24.49.35.7.11.2.26.48.38.68.12.2.28.47.41.66.13.2.31.46.45.65.14.19.34.45.48.64.15.2.37.46.54.65.34.38.82.87,1.18,1.22.22.21.52.47.75.67.27.22.63.5.9.7.25.18.58.41.84.57.42.26,1,.59,1.43.82.3.16.7.35,1.02.48.32.13.74.31,1.06.42.64.2,1.51.45,2.17.61.71.17,1.69.26,2.42.33.63.05,1.47.06,2.1,0,.59-.06,1.39-.15,1.98-.24.39-.06.89-.2,1.27-.29.53-.12,1.21-.35,1.71-.56.74-.31,1.71-.78,2.42-1.16l9.49-5.51c2.23-1.29,3.58-4.08,3.54-8.02Z"/>
            </g>
            <path class="cls-33" d="M869.07,1177.21c-2.14-1.21-5.61-1.21-7.74,0l-28.1,15.92c-2.13,1.21-2.12,3.16.03,4.37,2.14,1.21,5.61,1.21,7.74,0l28.1-15.92c2.13-1.21,2.12-3.16-.03-4.37Z"/>
          </g>
          <g>
            <path class="cls-29" d="M919.96,1241.6c-.12-.51-.26-1.01-.42-1.52.16.51.3,1.01.42,1.52ZM916.88,1234.17c.28.47.54.95.79,1.43-.25-.48-.52-.96-.79-1.43ZM948.84,1224.42c-.02-.3-.07-.69-.11-.99-.09-.67-.28-1.55-.38-1.91-.07-.25-.15-.58-.24-.82-.08-.24-.18-.55-.27-.79-.08-.23-.2-.53-.3-.76-.09-.22-.22-.51-.32-.72-.11-.21-.24-.49-.35-.69-.11-.21-.26-.48-.38-.68-.24-.4-.59-.92-.85-1.3-.14-.2-.33-.46-.49-.64-.16-.2-.37-.46-.54-.65-.17-.19-.4-.43-.57-.62-.17-.19-.43-.42-.61-.6-.22-.21-.52-.47-.75-.67-.26-.22-.62-.5-.9-.7-.5-.37-1.2-.8-1.74-1.11-.4-.23-.94-.51-1.36-.68-.63-.26-1.48-.61-2.15-.79-.68-.18-1.59-.39-2.28-.5-.61-.1-1.44-.18-2.06-.18-.76,0-1.78.05-2.53.13-.6.07-1.4.23-1.98.38-.58.15-1.34.38-1.9.6-.59.24-1.32.6-1.96.92-.16.07-.31.15-.46.24l-23.51,13.66-9.49,5.51c-.54.33-1.23.79-1.74,1.16-.32.23-.72.58-1.02.84-.15.13-.96.85-1.9,2-.48.59-1.08,1.43-1.44,2.1-.33.6-.73,1.43-1.01,2.05-.15.33-.3.8-.42,1.14-.18.53-.35,1.24-.48,1.78-.08.34-.15.8-.2,1.14-.07.44-.11,1.04-.14,1.48-.02.33-.02.77-.02,1.09,0,.37.03.85.06,1.22.03.32.07.75.12,1.07.04.27.1.64.16.91.06.26.13.62.2.88.07.26.17.6.24.85.07.24.18.56.27.8.17.45.41,1.04.62,1.47.1.21.24.49.35.7.11.2.26.48.38.68.12.2.28.47.41.66.13.2.31.46.45.65.14.19.34.45.48.64.15.2.37.46.54.65.34.38.82.87,1.18,1.23.22.21.52.47.75.67.27.22.63.5.9.7.25.18.58.41.84.57.42.26,1,.59,1.43.82.3.16.7.35,1.02.48.32.13.74.31,1.06.42.64.2,1.51.45,2.17.61.71.17,1.69.26,2.42.33.63.05,1.47.06,2.1,0,.59-.06,1.39-.15,1.98-.25.39-.06.89-.2,1.27-.29.53-.12,1.21-.35,1.71-.56.74-.31,1.71-.78,2.42-1.16l9.49-5.51,23.51-13.66c.08-.04.15-.09.23-.14.5-.31,1.09-.69,1.52-1.02.62-.49,1.41-1.2,1.97-1.76.31-.31.69-.74.95-1.08.46-.61,1.07-1.44,1.44-2.1.34-.6.74-1.42,1.01-2.05.22-.52.47-1.24.62-1.79.18-.68.39-1.59.48-2.28.06-.44.11-1.04.14-1.48.02-.25.02-.57.02-.85,0-.08,0-.17,0-.25,0-.37-.03-.85-.06-1.22ZM909.5,1226.04c.41.28.81.57,1.21.88-.4-.31-.8-.61-1.21-.88ZM912.44,1228.45c.37.36.74.74,1.09,1.14-.36-.39-.72-.77-1.09-1.14ZM914.06,1230.19c.69.82,1.35,1.68,1.95,2.59-.61-.91-1.26-1.77-1.95-2.59Z"/>
            <g>
              <path class="cls-30" d="M943.79,1223.36c0-.37-.03-.85-.06-1.22-.02-.3-.07-.69-.11-.99-.09-.67-.28-1.55-.38-1.91-.07-.25-.15-.58-.23-.82-.08-.24-.18-.55-.27-.79-.08-.23-.2-.53-.3-.76-.09-.22-.22-.51-.32-.72-.1-.21-.24-.49-.35-.69-.11-.21-.26-.48-.38-.68-.24-.4-.59-.92-.85-1.3-.14-.2-.33-.46-.49-.64-.16-.2-.37-.46-.54-.65-.17-.19-.4-.43-.57-.62-.17-.19-.43-.42-.61-.6-.22-.21-.52-.47-.75-.67-.26-.22-.63-.5-.9-.7-.5-.36-1.2-.8-1.74-1.11-.4-.23-.94-.51-1.36-.68-.63-.27-1.48-.61-2.15-.79-.68-.18-1.59-.39-2.28-.5-.61-.1-1.44-.18-2.06-.18-.76,0-1.78.05-2.53.13-.6.07-1.4.23-1.98.38-.58.15-1.34.38-1.9.6-.59.24-1.32.6-1.96.92-.16.07-.31.15-.46.24l-23.51,13.66c2.15-1.25,5.12-1.11,8.41.73,6.69,3.73,12.2,13.04,12.29,20.8.05,3.94-1.31,6.73-3.54,8.02l23.51-13.66c.08-.04.15-.09.22-.14.5-.31,1.09-.69,1.52-1.02.62-.49,1.41-1.2,1.97-1.76.31-.31.69-.74.95-1.08.46-.61,1.07-1.44,1.44-2.1.34-.6.74-1.42,1.01-2.05.22-.52.47-1.24.62-1.79.18-.68.39-1.59.48-2.28.06-.44.11-1.04.14-1.48.02-.25.02-.57.02-.85,0-.08,0-.17,0-.25Z"/>
              <path class="cls-27" d="M915.45,1243.81c-.1-7.76-5.6-17.07-12.29-20.8-3.29-1.83-6.26-1.98-8.41-.73l-9.49,5.51c-.54.33-1.23.79-1.74,1.16-.32.23-.72.58-1.02.84-.15.13-.96.85-1.9,2-.48.59-1.08,1.43-1.44,2.1-.33.6-.73,1.42-1.01,2.05-.15.33-.3.8-.42,1.14-.18.53-.35,1.24-.48,1.78-.08.34-.15.8-.2,1.14-.07.44-.11,1.04-.14,1.48-.02.33-.02.77-.02,1.09,0,.37.03.85.06,1.22.03.32.07.75.12,1.07.04.27.1.64.16.91.06.26.13.62.2.88.07.26.17.6.24.85.07.24.18.56.27.8.18.44.41,1.04.62,1.47.1.21.24.49.35.7.11.2.26.48.38.68.12.2.28.47.41.66.13.2.31.46.45.65.14.19.34.45.48.64.15.2.37.46.54.65.34.38.82.87,1.18,1.23.22.21.52.47.75.67.27.22.63.5.9.7.25.18.58.41.84.57.42.26,1,.59,1.43.82.3.16.7.35,1.02.48.32.13.74.31,1.06.42.64.2,1.51.45,2.17.61.71.17,1.69.26,2.42.33.63.05,1.47.06,2.1,0,.59-.06,1.39-.15,1.98-.24.39-.06.89-.2,1.27-.29.53-.12,1.21-.35,1.71-.56.74-.31,1.71-.78,2.42-1.16l9.49-5.51c2.23-1.29,3.58-4.08,3.54-8.02Z"/>
            </g>
            <path class="cls-22" d="M926.06,1210.04c-2.14-1.21-5.61-1.21-7.74,0l-28.1,15.92c-2.13,1.21-2.12,3.16.03,4.37s5.61,1.21,7.74,0l28.1-15.92c2.13-1.21,2.12-3.16-.03-4.37Z"/>
          </g>
        </g>
      </g>
      <g>
        <path class="cls-20" d="M465.91,878.27c-42.1-22.34-110.14-22.34-151.96,0-41.83,22.34-41.6,58.56.5,80.89,42.09,22.33,110.13,22.33,151.96,0,41.83-22.34,41.6-58.56-.49-80.89Z"/>
        <g>
          <g>
            <g>
              <path class="cls-4" d="M464.93,918.08c-1.78,12.31-10.86,24.34-27.22,33.69l.03,10.5c18.4-10.51,27.61-24.4,27.57-38.28l-.02-6.72c-.12.27-.23.54-.36.81Z"/>
              <path class="cls-4" d="M465.27,913.49c0,1.53-.12,3.06-.34,4.59.12-.27.24-.54.36-.81v-3.78Z"/>
            </g>
            <g>
              <path class="cls-4" d="M281.9,924.51c.04,13.43,8.74,26.85,26.15,37.17,35.42,21,93.48,21.26,129.67.58l-.03-10.5c-36.2,20.67-94.26,20.41-129.67-.58-15.19-9.01-23.75-20.37-25.71-32.03-.15-.33-.29-.66-.43-.97l.02,6.34Z"/>
              <path class="cls-4" d="M281.88,918.17c.14.32.28.64.43.97-.29-1.71-.44-3.42-.44-5.14v4.17Z"/>
            </g>
            <g>
              <path class="cls-10" d="M379.23,940.62c49.71.29,72.72-20.84,83.36-39.83-3.78-8.95-11.59-17.43-23.47-24.48-35.42-21-93.48-21.26-129.67-.58-12.73,7.27-21.04,16.17-24.96,25.55,7.72,15.63,29.31,38.95,94.74,39.34Z"/>
              <path class="cls-10" d="M378.13,961.99c55.9-.31,78.03-24.25,86.79-43.9.84-5.78.07-11.63-2.33-17.3-10.64,18.99-33.65,40.12-83.36,39.83-65.43-.38-87.02-23.71-94.74-39.34-2.45,5.87-3.16,11.94-2.15,17.92,7.09,15.59,28.15,43.16,95.79,42.78Z"/>
              <path class="cls-4" d="M378.13,961.99c-67.64.38-88.7-27.2-95.79-42.78,1.98,11.65,10.52,22.98,25.69,31.98,35.42,21,93.48,21.26,129.67.58,16.36-9.34,25.44-21.37,27.22-33.67-8.76,19.64-30.89,43.58-86.79,43.9Z"/>
            </g>
          </g>
          <g>
            <path class="cls-4" d="M464.2,897.76c-.48-5.71-.96-11.41-1.44-17.12,1.2,14.34-7.75,28.92-26.77,39.79l.4,7.03c14.22-8.39,22.72-19.54,27.81-29.69Z"/>
            <path class="cls-4" d="M464.14,919.77c.33-1.23.51-2.35.69-3.59.35-2.39.5-4.9.3-7.29-.31-3.71-.62-7.42-.93-11.13-5.08,10.15-13.58,21.31-27.81,29.69l1.2,20.81c13.82-8.14,21.87-18.73,26.55-28.49Z"/>
            <path class="cls-4" d="M379.23,940.62c-70.74-.41-90.24-27.64-96.37-42.97-.31,3.92-.61,7.84-.92,11.76-.19,2.39-.22,6.7-.21,8.9,0,1.55,1.08,1.31,1.53,2.83,7.94,15.82,29.95,41.21,94.86,40.84,26.87-.15,45.93-5.76,59.46-13.73l-1.2-20.81c-13.37,7.88-31.79,13.32-57.17,13.17Z"/>
            <path class="cls-4" d="M379.23,940.62c25.38.15,43.8-5.29,57.17-13.17l-.4-7.02c-35.29,20.16-91.9,19.9-126.43-.57-18.05-10.7-26.5-24.8-25.41-38.71-.43,5.5-.86,11-1.29,16.5,6.13,15.33,25.63,42.56,96.37,42.97Z"/>
            <path class="cls-21" d="M309.56,919.85c34.53,20.47,91.14,20.73,126.43.57,35.29-20.16,35.91-53.09,1.38-73.56-34.53-20.47-91.14-20.73-126.43-.57-35.29,20.16-35.91,53.09-1.38,73.56Z"/>
            <path class="cls-10" d="M281.74,918.31c0,1.1,0,1.65.02,2.75,4.21,9.25,14.7,21.2,26.25,28.04,35.42,21,93.48,21.26,129.67.58l-.08-1.44c-13.53,7.97-32.8,15.07-59.66,15.22-64.91.36-88.26-29.34-96.2-45.16Z"/>
          </g>
          <g>
            <path class="cls-10" d="M287.7,906.86c-.49-.73-.94-1.46-1.37-2.18l-1.12,17.32,1.49,2.8,1-17.95Z"/>
            <path class="cls-10" d="M293.89,914.54c-.49-.5-.95-1.01-1.4-1.51l-1.13,17.41,1.49,2.8,1.04-18.7Z"/>
            <path class="cls-10" d="M301.33,921.04c-.46-.34-.92-.69-1.36-1.04l-1.19,18.35,1.48,1.76,1.07-19.08Z"/>
            <path class="cls-10" d="M309.11,926.06c-.45-.25-.88-.5-1.32-.76l-1.21,19.62,1.51,1.3,1.02-20.16Z"/>
            <path class="cls-10" d="M316.95,929.92c-.49-.21-.97-.43-1.44-.64l-1.27,20.15,1.59,1.24,1.13-20.74Z"/>
            <path class="cls-10" d="M325.09,933.01c-.49-.16-.98-.33-1.46-.5l-.77,19.93,1.62,1.11.62-20.53Z"/>
            <path class="cls-10" d="M332.61,935.24l-.9,21.4c.56.15,1.13.31,1.7.46l.73-21.47c-.51-.13-1.03-.25-1.53-.38Z"/>
            <path class="cls-10" d="M342.73,937.47l-1.09,21.47c.56.11,1.13.21,1.7.31l.92-21.5c-.52-.09-1.02-.18-1.53-.28Z"/>
            <path class="cls-10" d="M352.73,939.01l-.29,21.6c.57.07,1.14.13,1.71.2l.12-21.62c-.52-.06-1.03-.12-1.54-.19Z"/>
            <path class="cls-10" d="M363.77,940.06l-.29,21.54c.57.03,1.14.07,1.71.1l.12-21.54c-.51-.03-1.03-.06-1.53-.1Z"/>
            <path class="cls-10" d="M463.58,919.91l-1.43-18.34c-.42.73-.87,1.47-1.33,2.2l1.31,18.95,1.45-2.82Z"/>
            <path class="cls-10" d="M457.53,928.97l-1.41-18.55c-.44.56-.9,1.11-1.37,1.66l1.32,19.71,1.45-2.82Z"/>
            <path class="cls-10" d="M450.2,936.95l-1.42-18.67c-.44.4-.88.8-1.33,1.2l1.29,19.25,1.46-1.78Z"/>
            <path class="cls-10" d="M442.48,943.61l-1.39-19.17c-.43.3-.87.59-1.31.88l1.21,19.59,1.49-1.31Z"/>
            <path class="cls-10" d="M434.88,948.2l-1.42-19.11c-.47.25-.95.5-1.44.75l1.29,19.61,1.57-1.26Z"/>
            <path class="cls-10" d="M426.3,951.31l-.93-18.46c-.49.2-.97.4-1.47.59l.78,18.99,1.61-1.12Z"/>
            <path class="cls-10" d="M416.44,935.93c-.51.15-1.02.3-1.54.44l.95,20.91c.56-.15,1.1-.32,1.65-.48l.06-.04-1.11-20.82Z"/>
            <path class="cls-10" d="M404.82,938.61l1.13,20.93c.58-.11,1.14-.23,1.71-.34l-1.3-20.87c-.51.1-1.02.19-1.54.28Z"/>
            <path class="cls-10" d="M394.76,939.96l.35,21.13c.58-.06,1.15-.13,1.72-.2l-.53-21.09c-.52.05-1.03.11-1.55.16Z"/>
            <path class="cls-10" d="M383.73,940.58l.36,21.26c.58-.02,1.15-.04,1.72-.07l-.53-21.24c-.52.02-1.02.04-1.54.05Z"/>
            <path class="cls-10" d="M373.52,940.52l.36,21.45c.56,0,1.14,0,1.71,0l-.53-21.42c-.52-.01-1.02-.03-1.53-.04Z"/>
          </g>
          <polygon class="cls-4" points="465.21 911.75 465.29 917.08 463.77 921.14 464.27 912.88 465.21 911.75"/>
          <path class="cls-10" d="M462.56,922.85c-4.84,8.86-12.59,18.12-24.97,25.41l.08,1.44c11.95-6.83,20.02-15.08,24.2-23.84h0s3.41-6.44,3.41-6.44v-1.96s-2.73,5.39-2.73,5.39Z"/>
        </g>
      </g>
      <g>
        <path class="cls-20" d="M1054.39,958.25c-43.23-18.69-113.1-18.69-156.05,0-42.95,18.69-42.72,49,.51,67.69,43.22,18.69,113.09,18.69,156.04,0,42.95-18.69,42.72-49-.5-67.69Z"/>
        <g>
          <path class="cls-29" d="M999.3,825.28q-.12-1.8-.21-2.72-.2-1.77-.34-2.68-.29-1.76-.47-2.65-.38-1.76-.62-2.66-.47-1.73-.75-2.62-.57-1.72-.9-2.6-.68-1.74-1.08-2.64-.8-1.73-1.26-2.62-.93-1.72-1.47-2.63-1.3-2.07-2.11-3.19c-1.56-2.08-1.59-2.12-2.62-3.31-.43-.48-1-1.13-1.45-1.59-.57-.6-1.36-1.38-1.96-1.95-.56-.5-1.28-1.18-1.85-1.66-.83-.69-1.96-1.59-2.82-2.24-1.36-.96-3.21-2.19-4.61-3.08-.89-.5-2.05-1.21-2.96-1.67-1.4-.72-3.3-1.63-4.73-2.27-1.06-.43-2.45-1.03-3.53-1.42-1.35-.49-3.17-1.11-4.54-1.53-1.18-.33-2.74-.79-3.93-1.09-1.32-.33-3.1-.72-4.43-.99-1.26-.21-2.93-.53-4.19-.72-1.3-.19-3.04-.41-4.35-.54-1.3-.1-3.03-.26-4.33-.33-1.31-.07-3.07-.13-4.38-.14-1.31.02-3.05,0-4.36.05-1.31.04-3.06.14-4.37.25-1.29.13-3,.27-4.29.43-1.3.16-3.02.42-4.31.64-1.23.24-2.88.53-4.1.8-1.31.29-3.06.72-4.36,1.08-1.13.34-2.65.77-3.77,1.14-1.34.45-3.11,1.09-4.42,1.61-.98.42-2.31.95-3.28,1.41-1.39.66-3.23,1.59-4.59,2.33-.79.47-1.87,1.06-2.64,1.56-1.22.79-2.82,1.88-3.99,2.73-.59.47-1.4,1.07-1.98,1.56-.81.68-1.87,1.62-2.65,2.34-.46.46-1.08,1.05-1.53,1.52-.57.59-1.3,1.41-1.84,2.03-1.66,2.02-1.69,2.06-2.62,3.34-1.36,1.99-1.39,2.03-2.11,3.23q-.97,1.69-1.46,2.63-.85,1.71-1.26,2.66-.71,1.69-1.06,2.61-.61,1.72-.9,2.63-.51,1.71-.74,2.62-.41,1.72-.6,2.63-.33,1.76-.46,2.68-.24,1.76-.33,2.68-.15,1.79-.19,2.72-.06,1.81-.06,2.75c.02,9.66,6.22,19.32,18.68,26.82,1.99,1.2,4.09,2.29,6.27,3.31,25.89,12.1,63.94,11.41,88.61-2.35,13.76-7.67,20.67-17.91,20.65-28.14q-.03-1.82-.07-2.75ZM880.31,800.52c.59-3.2,3.3-6.89,5.28-9.48,1.46-1.91,4.04-3.9,6-5.29,5.8-4.09,14.83-7.91,21.82-9.19,9.86-1.81,23.45-2.09,33.41-.95.05,0,6.3.92,12.61,3.1,1.55.53,6.25,2.15,11.15,5.08,8.33,4.99,11.89,10.4,13.41,14.07.63,1.52-103.89,3.85-103.67,2.66Z"/>
          <path class="cls-29" d="M999.37,828.02c.03,10.24-6.88,20.48-20.65,28.16-24.67,13.76-62.72,14.45-88.61,2.35-2.18-1.02-4.28-2.11-6.27-3.31-12.45-7.49-18.65-17.15-18.68-26.8l.47,164.12c.03,9.66,6.23,19.31,18.68,26.8,25.66,15.44,68.14,15.87,94.88.96,13.76-7.67,20.68-17.92,20.65-28.16l-.47-164.12Z"/>
          <g>
            <path class="cls-23" d="M974.38,896.46c-23.73,13.32-61.68,12.93-84.75-.86-11.35-6.78-16.98-15.54-16.96-24.28l-.21,117.39c-.02,8.74,5.61,17.5,16.96,24.28,23.07,13.79,61.01,14.17,84.75.86,12.06-6.77,18.13-15.77,18.16-24.8l.21-117.39c-.03,9.03-6.1,18.04-18.16,24.8Z"/>
            <path class="cls-5" d="M974.38,896.46c-23.73,13.32-61.68,12.93-84.75-.86-23.07-13.79-22.53-35.77,1.2-49.09,23.73-13.32,61.68-12.93,84.75.86,23.07,13.79,22.53,35.77-1.2,49.09Z"/>
          </g>
          <path class="cls-21" d="M999.37,837.2c.03,10.24-6.88,20.48-20.65,28.16-24.67,13.76-62.72,14.45-88.61,2.35v118.06c25.9,12.32,64.26,11.7,89.08-2.13,12.7-7.08,19.56-16.35,20.52-25.78l-.34-120.66Z"/>
          <path class="cls-4" d="M986.49,748.47c.02,8.31-5.59,16.62-16.75,22.85-21.7,12.1-56.17,11.75-76.98-.78-10.1-6.08-15.14-13.91-15.16-21.75l.14,49.13c.02,7.84,5.05,15.67,15.16,21.75,20.82,12.53,55.29,12.88,76.98.78,11.17-6.23,16.78-14.54,16.75-22.85l-.14-49.13Z"/>
          <path class="cls-21" d="M892.75,770.54c-20.82-12.53-20.1-32.5,1.59-44.59,21.7-12.1,56.17-11.75,76.98.78,20.82,12.53,20.1,32.5-1.59,44.59-21.7,12.1-56.17,11.75-76.98-.78Z"/>
          <path class="cls-5" d="M980.07,734.01c.02,7.33-4.93,14.67-14.79,20.17-19.15,10.68-49.58,10.37-67.96-.69-8.92-5.37-13.36-12.28-13.38-19.2l.04,14.48c.02,6.92,4.46,13.83,13.38,19.2,18.38,11.06,48.8,11.37,67.96.69,9.86-5.5,14.81-12.83,14.79-20.17l-.04-14.48Z"/>
          <path class="cls-29" d="M897.32,753.49c-18.38-11.06-17.75-28.69,1.41-39.37,19.16-10.68,49.58-10.37,67.96.69,18.38,11.06,17.75,28.69-1.41,39.37-19.16,10.68-49.58,10.37-67.96-.69Z"/>
          <path class="cls-4" d="M958.06,678.87c.01,4-2.69,8-8.06,11-10.45,5.82-27.04,5.66-37.06-.37-4.86-2.93-7.29-6.7-7.3-10.47l.16,55.2c.01,3.77,2.43,7.54,7.3,10.47,10.02,6.03,26.61,6.2,37.06.37,5.38-3,8.08-7,8.06-11l-.16-55.2Z"/>
          <path class="cls-21" d="M912.93,689.5c-10.02-6.03-9.68-15.64.77-21.47,10.45-5.82,27.04-5.66,37.06.37s9.68,15.64-.77,21.47c-10.45,5.82-27.04,5.66-37.06-.37Z"/>
          <g class="cls-13">
            <g>
              <path class="cls-29" d="M912.59,703.21c-1.49-.86-2.7-.17-2.7,1.54,0,1.71,1.2,3.79,2.69,4.65,1.49.86,2.7.17,2.71-1.54,0-1.71-1.2-3.79-2.69-4.65ZM912.58,707.45c-.55-.32-1-1.09-.99-1.72,0-.63.45-.89,1-.57.55.32,1,1.09,1,1.72,0,.63-.45.89-1,.57Z"/>
              <path class="cls-14" d="M912.59,705.16c-.55-.32-1-.06-1,.57,0,.63.44,1.41.99,1.72.55.32,1,.06,1-.57,0-.63-.44-1.4-1-1.72Z"/>
            </g>
          </g>
          <path class="cls-15" d="M879.65,838.66c-4.71-3.39-8.54-.67-8.55,6.09l-.32,139.3c-.02,6.75,3.79,14.97,8.5,18.36,4.71,3.39,8.54.67,8.56-6.08l.32-139.3c.02-6.76-3.79-14.98-8.5-18.37Z"/>
        </g>
      </g>
      <g>
        <path class="cls-20" d="M1107.09,1040.28c-13.96-8.06-36.52-8.06-50.39,0-13.87,8.06-13.8,21.13.16,29.19,13.96,8.06,36.52,8.06,50.39,0,13.87-8.06,13.8-21.13-.16-29.19Z"/>
        <path class="cls-29" d="M1097.22,1040.28c-13.96-8.06-36.52-8.06-50.39,0-13.87,8.06-13.8,21.13.16,29.19,13.96,8.06,36.52,8.06,50.39,0,13.87-8.06,13.8-21.13-.16-29.19Z"/>
        <polygon class="cls-29" points="1036.48 1045.88 1036.48 1054.88 1107.72 1055.37 1107.72 1046.37 1036.48 1045.88"/>
        <path class="cls-4" d="M1097.22,1031.28c-13.96-8.06-36.52-8.06-50.39,0-13.87,8.06-13.8,21.13.16,29.19,13.96,8.06,36.52,8.06,50.39,0,13.87-8.06,13.8-21.13-.16-29.19Z"/>
        <path class="cls-10" d="M1048.08,1057.02c-.41,0-.8-.22-1-.6-.29-.55-.08-1.23.47-1.52l44.02-23.08c.55-.29,1.23-.08,1.52.47.29.55.08,1.23-.47,1.52l-44.02,23.08c-.17.09-.35.13-.52.13Z"/>
      </g>
      <g>
        <path class="cls-20" d="M1228.77,1080.08c-13.96-8.06-36.52-8.06-50.39,0-13.87,8.06-13.8,21.13.16,29.19,13.96,8.06,36.52,8.06,50.39,0,13.87-8.06,13.8-21.13-.16-29.19Z"/>
        <path class="cls-29" d="M1218.91,1080.09c-13.96-8.06-36.52-8.06-50.39,0s-13.8,21.13.16,29.19c13.96,8.06,36.52,8.06,50.39,0,13.87-8.06,13.8-21.13-.16-29.19Z"/>
        <polygon class="cls-29" points="1158.17 1085.68 1158.17 1094.68 1229.41 1095.17 1229.41 1086.17 1158.17 1085.68"/>
        <path class="cls-4" d="M1218.91,1071.08c-13.96-8.06-36.52-8.06-50.39,0s-13.8,21.13.16,29.19c13.96,8.06,36.52,8.06,50.39,0,13.87-8.06,13.8-21.13-.16-29.19Z"/>
        <path class="cls-10" d="M1169.77,1096.82c-.41,0-.8-.22-1-.6-.29-.55-.08-1.23.47-1.52l44.02-23.08c.55-.29,1.23-.08,1.52.47.29.55.08,1.23-.47,1.52l-44.02,23.08c-.17.09-.35.13-.52.13Z"/>
      </g>
      <g>
        <path class="cls-20" d="M1086.37,1100.92c13.96-8.06,36.52-8.06,50.39,0,13.87,8.06,13.8,21.13-.16,29.19-13.96,8.06-36.52,8.06-50.39,0-13.87-8.06-13.8-21.13.16-29.19Z"/>
        <path class="cls-29" d="M1075.76,1100.92c13.96-8.06,36.52-8.06,50.39,0,13.87,8.06,13.8,21.13-.16,29.19-13.96,8.06-36.52,8.06-50.39,0-13.87-8.06-13.8-21.13.16-29.19Z"/>
        <polygon class="cls-29" points="1136.51 1106.52 1136.51 1115.52 1065.26 1116.01 1065.26 1107.01 1136.51 1106.52"/>
        <path class="cls-4" d="M1075.76,1091.92c13.96-8.06,36.52-8.06,50.39,0,13.87,8.06,13.8,21.13-.16,29.19-13.96,8.06-36.52,8.06-50.39,0-13.87-8.06-13.8-21.13.16-29.19Z"/>
        <path class="cls-10" d="M1124.9,1117.66c.41,0,.8-.22,1-.6.29-.55.08-1.23-.47-1.52l-44.02-23.08c-.55-.29-1.23-.08-1.52.47-.29.55-.08,1.23.47,1.52l44.02,23.08c.17.09.35.13.52.13Z"/>
      </g>
    </g>
  </g>
</svg>